<svg width="70" height="70" viewBox="0 0 70 70" fill="none" xmlns="http://www.w3.org/2000/svg">
<path d="M12.0312 66.7188H20.7812V63.4375V50.3125V47.0312H12.0312V49.2188V64.5312V66.7188Z" fill="#9BC9FF"/>
<path d="M3.28125 49.2188H12.0312V64.5312H3.28125V49.2188Z" fill="#9BC9FF"/>
<path d="M64.5312 18.5938H29.5312C28.9511 18.5938 28.3947 18.8242 27.9845 19.2345C27.5742 19.6447 27.3438 20.2011 27.3438 20.7812V27.3438C27.3438 27.9239 27.5742 28.4803 27.9845 28.8905C28.3947 29.3008 28.9511 29.5312 29.5312 29.5312H64.5312C65.1114 29.5312 65.6678 29.3008 66.078 28.8905C66.4883 28.4803 66.7188 27.9239 66.7188 27.3438V20.7812C66.7188 20.2011 66.4883 19.6447 66.078 19.2345C65.6678 18.8242 65.1114 18.5938 64.5312 18.5938ZM62.3438 26.25H53.5938V21.875H62.3438V26.25Z" fill="#9BC9FF"/>
<path d="M64.5312 33.9062H29.5312C28.9511 33.9062 28.3947 34.1367 27.9845 34.547C27.5742 34.9572 27.3438 35.5136 27.3438 36.0938V42.6562C27.3438 43.2364 27.5742 43.7928 27.9845 44.203C28.3947 44.6133 28.9511 44.8438 29.5312 44.8438H64.5312C65.1114 44.8438 65.6678 44.6133 66.078 44.203C66.4883 43.7928 66.7188 43.2364 66.7188 42.6562V36.0938C66.7188 35.5136 66.4883 34.9572 66.078 34.547C65.6678 34.1367 65.1114 33.9062 64.5312 33.9062ZM62.3438 41.5625H53.5938V37.1875H62.3438V41.5625Z" fill="#9BC9FF"/>
<path d="M64.5312 3.28125H29.5312C28.9511 3.28125 28.3947 3.51172 27.9845 3.92195C27.5742 4.33219 27.3438 4.88859 27.3438 5.46875V12.0312C27.3438 12.6114 27.5742 13.1678 27.9845 13.578C28.3947 13.9883 28.9511 14.2188 29.5312 14.2188H64.5312C65.1114 14.2188 65.6678 13.9883 66.078 13.578C66.4883 13.1678 66.7188 12.6114 66.7188 12.0312V5.46875C66.7188 4.88859 66.4883 4.33219 66.078 3.92195C65.6678 3.51172 65.1114 3.28125 64.5312 3.28125ZM62.3438 10.9375H53.5938V6.5625H62.3438V10.9375Z" fill="#9BC9FF"/>
<path d="M64.5312 15.3125C65.4015 15.3125 66.2361 14.9668 66.8514 14.3514C67.4668 13.7361 67.8125 12.9015 67.8125 12.0312V5.46875C67.8125 4.59851 67.4668 3.76391 66.8514 3.14856C66.2361 2.5332 65.4015 2.1875 64.5312 2.1875H29.5312C28.661 2.1875 27.8264 2.5332 27.2111 3.14856C26.5957 3.76391 26.25 4.59851 26.25 5.46875V12.0312C26.25 12.9015 26.5957 13.7361 27.2111 14.3514C27.8264 14.9668 28.661 15.3125 29.5312 15.3125H30.625V17.5H29.5312C28.661 17.5 27.8264 17.8457 27.2111 18.4611C26.5957 19.0764 26.25 19.911 26.25 20.7812V27.3438C26.25 28.214 26.5957 29.0486 27.2111 29.6639C27.8264 30.2793 28.661 30.625 29.5312 30.625H30.625V32.8125H29.5312C28.661 32.8125 27.8264 33.1582 27.2111 33.7736C26.5957 34.3889 26.25 35.2235 26.25 36.0938V42.6562C26.25 43.5265 26.5957 44.3611 27.2111 44.9764C27.8264 45.5918 28.661 45.9375 29.5312 45.9375H30.625V47.3419C29.6234 47.1872 28.601 47.2329 27.6172 47.4764L21.875 48.9114V47.0312C21.875 46.7412 21.7598 46.463 21.5546 46.2579C21.3495 46.0527 21.0713 45.9375 20.7812 45.9375H12.0312C11.7412 45.9375 11.463 46.0527 11.2579 46.2579C11.0527 46.463 10.9375 46.7412 10.9375 47.0312V48.125H3.28125C2.99117 48.125 2.71297 48.2402 2.50785 48.4454C2.30273 48.6505 2.1875 48.9287 2.1875 49.2188V64.5312C2.1875 64.8213 2.30273 65.0995 2.50785 65.3046C2.71297 65.5098 2.99117 65.625 3.28125 65.625H10.9375V66.7188C10.9375 67.0088 11.0527 67.287 11.2579 67.4921C11.463 67.6973 11.7412 67.8125 12.0312 67.8125H20.7812C21.0713 67.8125 21.3495 67.6973 21.5546 67.4921C21.7598 67.287 21.875 67.0088 21.875 66.7188V65.2072L23.2816 65.9105C24.3452 66.441 25.5174 66.7177 26.7061 66.7188H43.0861C44.43 66.7181 45.7501 66.3643 46.9142 65.6928L65.2892 55.0834C66.0931 54.614 66.7262 53.9004 67.0967 53.0464C67.4671 52.1924 67.5555 51.2425 67.349 50.3348C67.1424 49.4272 66.6518 48.609 65.9483 47.9993C65.2449 47.3897 64.3653 47.0203 63.4375 46.9448V45.9375H64.5312C65.4015 45.9375 66.2361 45.5918 66.8514 44.9764C67.4668 44.3611 67.8125 43.5265 67.8125 42.6562V36.0938C67.8125 35.2235 67.4668 34.3889 66.8514 33.7736C66.2361 33.1582 65.4015 32.8125 64.5312 32.8125H63.4375V30.625H64.5312C65.4015 30.625 66.2361 30.2793 66.8514 29.6639C67.4668 29.0486 67.8125 28.214 67.8125 27.3438V20.7812C67.8125 19.911 67.4668 19.0764 66.8514 18.4611C66.2361 17.8457 65.4015 17.5 64.5312 17.5H63.4375V15.3125H64.5312ZM4.375 63.4375V50.3125H10.9375V63.4375H4.375ZM19.6875 65.625H13.125V48.125H19.6875V65.625ZM64.9841 50.2031C65.2736 50.7053 65.3528 51.3016 65.2044 51.862C65.0561 52.4223 64.6922 52.9013 64.1922 53.1945L45.8172 63.8039C44.9858 64.2839 44.0428 64.5367 43.0828 64.5367H26.7061C25.8569 64.5354 25.0195 64.3378 24.2594 63.9592L21.875 62.7616V51.1678L28.1477 49.5994C29.0488 49.3745 29.9924 49.3824 30.8897 49.6223L47.2084 53.9973C47.4908 54.0672 47.7563 54.1926 47.9896 54.3662C48.2229 54.5399 48.4192 54.7584 48.5671 55.0088C48.7149 55.2592 48.8114 55.5367 48.8507 55.8248C48.8901 56.113 48.8716 56.4061 48.7963 56.687C48.7211 56.9679 48.5905 57.231 48.4124 57.4609C48.2342 57.6908 48.012 57.8828 47.7587 58.0258C47.5055 58.1688 47.2262 58.2598 46.9374 58.2936C46.6485 58.3274 46.3558 58.3032 46.0764 58.2225L33.0312 54.7247C32.7515 54.6512 32.4541 54.6915 32.2041 54.8368C31.954 54.9821 31.7716 55.2205 31.6969 55.4998C31.6221 55.7792 31.661 56.0768 31.8051 56.3275C31.9492 56.5783 32.1868 56.7618 32.4658 56.8378L45.5088 60.3378C45.8805 60.4375 46.2636 60.4882 46.6484 60.4888C47.2525 60.4933 47.8508 60.3712 48.4047 60.1304C48.9587 59.8895 49.456 59.5352 49.8646 59.0903C50.2733 58.6454 50.5841 58.1198 50.7771 57.5474C50.9701 56.975 51.041 56.3685 50.9852 55.767L62.0014 49.4069C62.505 49.1282 63.0971 49.0554 63.6532 49.2039C64.2094 49.3523 64.6863 49.7105 64.9841 50.2031ZM33.7564 48.125L32.8125 47.8723V45.9375H61.25V47.3386C61.1406 47.3922 61.0214 47.4425 60.9109 47.5059L59.838 48.125H33.7564ZM56.0492 50.3125L50.2458 53.6627C49.6648 52.7894 48.787 52.1564 47.775 51.8809L41.9212 50.3125H56.0492ZM64.5312 35C64.8213 35 65.0995 35.1152 65.3046 35.3204C65.5098 35.5255 65.625 35.8037 65.625 36.0938V42.6562C65.625 42.9463 65.5098 43.2245 65.3046 43.4296C65.0995 43.6348 64.8213 43.75 64.5312 43.75H29.5312C29.2412 43.75 28.963 43.6348 28.7579 43.4296C28.5527 43.2245 28.4375 42.9463 28.4375 42.6562V36.0938C28.4375 35.8037 28.5527 35.5255 28.7579 35.3204C28.963 35.1152 29.2412 35 29.5312 35H64.5312ZM32.8125 32.8125V30.625H61.25V32.8125H32.8125ZM64.5312 19.6875C64.8213 19.6875 65.0995 19.8027 65.3046 20.0079C65.5098 20.213 65.625 20.4912 65.625 20.7812V27.3438C65.625 27.6338 65.5098 27.912 65.3046 28.1171C65.0995 28.3223 64.8213 28.4375 64.5312 28.4375H29.5312C29.2412 28.4375 28.963 28.3223 28.7579 28.1171C28.5527 27.912 28.4375 27.6338 28.4375 27.3438V20.7812C28.4375 20.4912 28.5527 20.213 28.7579 20.0079C28.963 19.8027 29.2412 19.6875 29.5312 19.6875H64.5312ZM32.8125 17.5V15.3125H61.25V17.5H32.8125ZM29.5312 13.125C29.2412 13.125 28.963 13.0098 28.7579 12.8046C28.5527 12.5995 28.4375 12.3213 28.4375 12.0312V5.46875C28.4375 5.17867 28.5527 4.90047 28.7579 4.69535C28.963 4.49023 29.2412 4.375 29.5312 4.375H64.5312C64.8213 4.375 65.0995 4.49023 65.3046 4.69535C65.5098 4.90047 65.625 5.17867 65.625 5.46875V12.0312C65.625 12.3213 65.5098 12.5995 65.3046 12.8046C65.0995 13.0098 64.8213 13.125 64.5312 13.125H29.5312Z" fill="#1E81CE"/>
<path d="M30.625 6.5625H32.8125V10.9375H30.625V6.5625Z" fill="#1E81CE"/>
<path d="M35 6.5625H37.1875V10.9375H35V6.5625Z" fill="#1E81CE"/>
<path d="M39.375 6.5625H41.5625V10.9375H39.375V6.5625Z" fill="#1E81CE"/>
<path d="M48.125 6.5625H50.3125V10.9375H48.125V6.5625Z" fill="#1E81CE"/>
<path d="M43.75 6.5625H45.9375V10.9375H43.75V6.5625Z" fill="#1E81CE"/>
<path d="M35 21.875H37.1875V26.25H35V21.875Z" fill="#1E81CE"/>
<path d="M30.625 21.875H32.8125V26.25H30.625V21.875Z" fill="#1E81CE"/>
<path d="M39.375 21.875H41.5625V26.25H39.375V21.875Z" fill="#1E81CE"/>
<path d="M43.75 21.875H45.9375V26.25H43.75V21.875Z" fill="#1E81CE"/>
<path d="M48.125 21.875H50.3125V26.25H48.125V21.875Z" fill="#1E81CE"/>
<path d="M30.625 37.1875H32.8125V41.5625H30.625V37.1875Z" fill="#1E81CE"/>
<path d="M35 37.1875H37.1875V41.5625H35V37.1875Z" fill="#1E81CE"/>
<path d="M39.375 37.1875H41.5625V41.5625H39.375V37.1875Z" fill="#1E81CE"/>
<path d="M43.75 37.1875H45.9375V41.5625H43.75V37.1875Z" fill="#1E81CE"/>
<path d="M48.125 37.1875H50.3125V41.5625H48.125V37.1875Z" fill="#1E81CE"/>
<path d="M63.4375 6.5625C63.4375 6.27242 63.3223 5.99422 63.1171 5.7891C62.912 5.58398 62.6338 5.46875 62.3438 5.46875H53.5938C53.3037 5.46875 53.0255 5.58398 52.8204 5.7891C52.6152 5.99422 52.5 6.27242 52.5 6.5625V10.9375C52.5 11.2276 52.6152 11.5058 52.8204 11.7109C53.0255 11.916 53.3037 12.0312 53.5938 12.0312H62.3438C62.6338 12.0312 62.912 11.916 63.1171 11.7109C63.3223 11.5058 63.4375 11.2276 63.4375 10.9375V6.5625ZM61.25 9.84375H54.6875V7.65625H61.25V9.84375Z" fill="#1E81CE"/>
<path d="M53.5938 27.3438H62.3438C62.6338 27.3438 62.912 27.2285 63.1171 27.0234C63.3223 26.8183 63.4375 26.5401 63.4375 26.25V21.875C63.4375 21.5849 63.3223 21.3067 63.1171 21.1016C62.912 20.8965 62.6338 20.7812 62.3438 20.7812H53.5938C53.3037 20.7812 53.0255 20.8965 52.8204 21.1016C52.6152 21.3067 52.5 21.5849 52.5 21.875V26.25C52.5 26.5401 52.6152 26.8183 52.8204 27.0234C53.0255 27.2285 53.3037 27.3438 53.5938 27.3438ZM54.6875 22.9688H61.25V25.1562H54.6875V22.9688Z" fill="#1E81CE"/>
<path d="M53.5938 42.6562H62.3438C62.6338 42.6562 62.912 42.541 63.1171 42.3359C63.3223 42.1308 63.4375 41.8526 63.4375 41.5625V37.1875C63.4375 36.8974 63.3223 36.6192 63.1171 36.4141C62.912 36.209 62.6338 36.0938 62.3438 36.0938H53.5938C53.3037 36.0938 53.0255 36.209 52.8204 36.4141C52.6152 36.6192 52.5 36.8974 52.5 37.1875V41.5625C52.5 41.8526 52.6152 42.1308 52.8204 42.3359C53.0255 42.541 53.3037 42.6562 53.5938 42.6562ZM54.6875 38.2812H61.25V40.4688H54.6875V38.2812Z" fill="#1E81CE"/>
</svg>
