<svg width="70" height="70" viewBox="0 0 70 70" fill="none" xmlns="http://www.w3.org/2000/svg">
<path d="M29.1667 38.5H40.8334V31.5H29.1667V38.5Z" fill="white"/>
<path d="M12.8334 38.5V31.5H1.16675V38.5H12.8334Z" fill="#9BC9FF"/>
<path d="M57.1667 38.5H68.8334V31.5H57.1667V38.5Z" fill="#9BC9FF"/>
<path d="M61.8334 10.5H50.1667V17.5H61.8334V10.5Z" fill="#9BC9FF"/>
<path d="M8.16675 17.5H19.8334V10.5H8.16675V17.5Z" fill="#9BC9FF"/>
<path d="M19.8334 52.5H8.16675V59.5H19.8334V52.5Z" fill="#9BC9FF"/>
<path d="M61.8334 52.5H50.1667V59.5H61.8334V52.5Z" fill="#9BC9FF"/>
<path d="M40.8334 1.16663H29.1667V8.16663H40.8334V1.16663Z" fill="#9BC9FF"/>
<path d="M29.1667 65.3334H40.8334V58.3334H29.1667V65.3334Z" fill="#9BC9FF"/>
<path d="M42 39.6667V30.3334H28V39.6667H33.8333V40.8334H31.5V43.1667H38.5V40.8334H36.1667V39.6667H42ZM30.3333 32.6667H39.6667V37.3334H30.3333V32.6667Z" fill="#1E81CE"/>
<path d="M3.5 40.8334V43.1667H10.5V40.8334H8.16667V39.6667H14V30.3334H0V39.6667H5.83333V40.8334H3.5ZM2.33333 32.6667H11.6667V37.3334H2.33333V32.6667Z" fill="#1E81CE"/>
<path d="M70 39.6667V30.3334H56V39.6667H61.8333V40.8334H59.5V43.1667H66.5V40.8334H64.1667V39.6667H70ZM58.3333 32.6667H67.6667V37.3334H58.3333V32.6667Z" fill="#1E81CE"/>
<path d="M54.8333 19.8334H52.5V22.1667H59.5V19.8334H57.1667V18.6667H63V9.33337H49V18.6667H54.8333V19.8334ZM51.3333 11.6667H60.6667V16.3334H51.3333V11.6667Z" fill="#1E81CE"/>
<path d="M12.8333 19.8334H10.5V22.1667H17.5V19.8334H15.1667V18.6667H21V9.33337H7V18.6667H12.8333V19.8334ZM9.33333 11.6667H18.6667V16.3334H9.33333V11.6667Z" fill="#1E81CE"/>
<path d="M7 60.6667H12.8333V61.8334H10.5V64.1667H17.5V61.8334H15.1667V60.6667H21V51.3334H7V60.6667ZM9.33333 53.6667H18.6667V58.3334H9.33333V53.6667Z" fill="#1E81CE"/>
<path d="M49 60.6667H54.8333V61.8334H52.5V64.1667H59.5V61.8334H57.1667V60.6667H63V51.3334H49V60.6667ZM51.3333 53.6667H60.6667V58.3334H51.3333V53.6667Z" fill="#1E81CE"/>
<path d="M33.8333 10.5H31.5V12.8333H38.5V10.5H36.1667V9.33333H42V0H28V9.33333H33.8333V10.5ZM30.3333 2.33333H39.6667V7H30.3333V2.33333Z" fill="#1E81CE"/>
<path d="M28 66.5H33.8333V67.6666H31.5V70H38.5V67.6666H36.1667V66.5H42V57.1666H28V66.5ZM30.3333 59.5H39.6667V64.1666H30.3333V59.5Z" fill="#1E81CE"/>
<path d="M36.1666 26.8333V16.3333C36.1666 15.689 35.6442 15.1666 34.9999 15.1666C34.3556 15.1666 33.8333 15.689 33.8333 16.3333V26.8333C33.8333 27.4776 34.3556 28 34.9999 28C35.6442 28 36.1666 27.4776 36.1666 26.8333Z" fill="#1E81CE"/>
<path d="M33.8333 46.6667V53.6667C33.8333 54.311 34.3556 54.8333 34.9999 54.8333C35.6442 54.8333 36.1666 54.311 36.1666 53.6667V46.6667C36.1666 46.0224 35.6442 45.5 34.9999 45.5C34.3556 45.5 33.8333 46.0224 33.8333 46.6667Z" fill="#1E81CE"/>
<path d="M45.4999 33.8334C44.8556 33.8334 44.3333 34.3558 44.3333 35C44.3333 35.6443 44.8556 36.1667 45.4999 36.1667H52.4999C53.1442 36.1667 53.6666 35.6443 53.6666 35C53.6666 34.3558 53.1442 33.8334 52.4999 33.8334H45.4999Z" fill="#1E81CE"/>
<path d="M17.4999 33.8334C16.8556 33.8334 16.3333 34.3558 16.3333 35C16.3333 35.6443 16.8556 36.1667 17.4999 36.1667H24.4999C25.1442 36.1667 25.6666 35.6443 25.6666 35C25.6666 34.3558 25.1442 33.8334 24.4999 33.8334H17.4999Z" fill="#1E81CE"/>
<path d="M42.3419 27.6581C42.7976 28.1133 43.5359 28.1133 43.9916 27.6581L48.6583 22.9915C49.1003 22.5335 49.094 21.806 48.644 21.356C48.194 20.9059 47.4665 20.8997 47.0085 21.3417L42.3419 26.0084C41.8867 26.4641 41.8867 27.2024 42.3419 27.6581Z" fill="#1E81CE"/>
<path d="M21.3419 22.9915L26.0085 27.6581C26.4665 28.1002 27.194 28.0939 27.644 27.6439C28.0941 27.1939 28.1003 26.4664 27.6583 26.0084L22.9916 21.3417C22.5336 20.8997 21.8061 20.9059 21.3561 21.356C20.9061 21.806 20.8998 22.5335 21.3419 22.9915Z" fill="#1E81CE"/>
<path d="M27.6583 42.3417C27.2026 41.8866 26.4643 41.8866 26.0086 42.3417L21.3419 47.0084C21.0389 47.3012 20.9169 47.7353 21.024 48.1432C21.1306 48.5511 21.449 48.8695 21.8569 48.976C22.2648 49.0831 22.6988 48.9612 22.9917 48.6581L27.6583 43.9915C28.1135 43.5357 28.1135 42.7975 27.6583 42.3417Z" fill="#1E81CE"/>
<path d="M48.658 47.0084L43.9914 42.3417C43.5333 41.8997 42.8059 41.9059 42.3559 42.356C41.9058 42.806 41.8996 43.5335 42.3416 43.9915L47.0083 48.6581C47.4663 49.1002 48.1937 49.0939 48.6438 48.6439C49.0938 48.1939 49.1001 47.4664 48.658 47.0084Z" fill="#1E81CE"/>
</svg>
