<svg width="70" height="70" viewBox="0 0 70 70" fill="none" xmlns="http://www.w3.org/2000/svg">
<g clip-path="url(#clip0)">
<path d="M25.9086 53.6661H24.7722C24.1693 53.6661 23.5912 53.912 23.165 54.3495C22.7387 54.7871 22.4993 55.3806 22.4993 55.9994V60.6659C22.4993 61.2847 22.7387 61.8782 23.165 62.3158C23.5912 62.7534 24.1693 62.9992 24.7722 62.9992H45.2281C45.8309 62.9992 46.409 62.7534 46.8353 62.3158C47.2615 61.8782 47.501 61.2847 47.501 60.6659V55.9994C47.501 55.3806 47.2615 54.7871 46.8353 54.3495C46.409 53.912 45.8309 53.6661 45.2281 53.6661H25.9086Z" fill="#9BC9FF"/>
<path d="M50.9103 29.167C50.9103 30.0952 50.5511 30.9854 49.9117 31.6418C49.2723 32.2982 48.4052 32.6669 47.501 32.6669C46.5967 32.6669 45.7296 32.2982 45.0902 31.6418C44.4508 30.9854 44.0916 30.0952 44.0916 29.167C44.0897 28.3045 44.4018 27.4723 44.9667 26.8337H35.0001V37.0651C34.3781 36.4852 33.5674 36.1648 32.7272 36.1668C31.823 36.1668 30.9558 36.5355 30.3164 37.1919C29.6771 37.8482 29.3179 38.7385 29.3179 39.6667C29.3179 40.5949 29.6771 41.4851 30.3164 42.1415C30.9558 42.7978 31.823 43.1666 32.7272 43.1666C33.5674 43.1685 34.3781 42.8481 35.0001 42.2683V53.6663H44.0916V52.5953C44.1002 51.3812 44.413 50.1897 44.9999 49.1357C45.5869 48.0816 46.4282 47.2003 47.443 46.5766C50.7677 44.4915 53.5438 41.6015 55.5282 38.1597C57.5126 34.7178 58.6447 30.829 58.8256 26.8337H50.0352C50.6001 27.4723 50.9122 28.3045 50.9103 29.167Z" fill="#9BC9FF"/>
<path d="M11.1348 25.6671C11.1348 26.0591 11.1541 26.4464 11.1723 26.8337H19.9649C19.4001 26.1952 19.088 25.363 19.0899 24.5005C19.0899 23.5722 19.4491 22.682 20.0884 22.0257C20.7278 21.3693 21.595 21.0006 22.4992 21.0006C23.4034 21.0006 24.2706 21.3693 24.91 22.0257C25.5493 22.682 25.9085 23.5722 25.9085 24.5005C25.9104 25.363 25.5983 26.1952 25.0335 26.8337H35.0001V16.6024C35.6221 17.1822 36.4327 17.5026 37.2729 17.5007C38.1772 17.5007 39.0443 17.1319 39.6837 16.4756C40.3231 15.8192 40.6823 14.929 40.6823 14.0008C40.6823 13.0726 40.3231 12.1823 39.6837 11.526C39.0443 10.8696 38.1772 10.5009 37.2729 10.5009C36.4327 10.4989 35.6221 10.8193 35.0001 11.3992V1.16785C28.6706 1.16785 22.6004 3.74901 18.1247 8.34351C13.6491 12.938 11.1348 19.1695 11.1348 25.6671Z" fill="#9BC9FF"/>
<path d="M48.0361 47.5717C51.8717 45.1613 55.0039 41.7347 57.1037 37.6522C59.2034 33.5696 60.1931 28.9818 59.9688 24.3709C59.6118 18.0622 57.019 12.1055 52.6792 7.62375C48.3394 3.14201 42.5524 0.444868 36.4092 0.0408026C33.0125 -0.156043 29.6125 0.360806 26.4172 1.55971C23.2219 2.75861 20.2985 4.61434 17.8261 7.01331C15.3537 9.41227 13.3842 12.304 12.0382 15.5114C10.6922 18.7189 9.99809 22.1746 9.99824 25.667C9.98149 30.0721 11.0769 34.4066 13.1777 38.2477C15.2786 42.0889 18.3131 45.3057 21.9854 47.5845C22.8184 48.0932 23.5114 48.8115 23.999 49.6714C24.4866 50.5314 24.7526 51.5047 24.772 52.4995C23.8678 52.4995 23.0006 52.8683 22.3612 53.5246C21.7219 54.181 21.3627 55.0712 21.3627 55.9994V60.6659C21.3627 61.5942 21.7219 62.4844 22.3612 63.1407C23.0006 63.7971 23.8678 64.1658 24.772 64.1658H27.0449V66.4991C27.0449 67.4273 27.4041 68.3175 28.0434 68.9739C28.6828 69.6302 29.55 69.999 30.4542 69.999H39.5457C40.45 69.999 41.3171 69.6302 41.9565 68.9739C42.5959 68.3175 42.9551 67.4273 42.9551 66.4991V64.1658H45.228C46.1322 64.1658 46.9993 63.7971 47.6387 63.1407C48.2781 62.4844 48.6373 61.5942 48.6373 60.6659V55.9994C48.6373 55.0722 48.2789 54.1829 47.6407 53.5267C47.0026 52.8705 46.1369 52.5011 45.2336 52.4995C45.2552 51.5015 45.5237 50.5256 46.014 49.6635C46.5042 48.8014 47.2001 48.0815 48.0361 47.5717ZM57.6959 24.4852C57.7141 24.8807 57.7129 25.2727 57.7129 25.6658H50.0351C49.8152 25.666 49.6001 25.7315 49.4158 25.8547C49.2314 25.9778 49.0859 26.1532 48.9968 26.3596C48.9076 26.5659 48.8787 26.7944 48.9135 27.0173C48.9484 27.2402 49.0455 27.4479 49.193 27.6153C49.5675 28.0405 49.7745 28.5936 49.7737 29.1669C49.7737 29.7857 49.5343 30.3792 49.108 30.8168C48.6818 31.2543 48.1037 31.5002 47.5008 31.5002C46.898 31.5002 46.3199 31.2543 45.8937 30.8168C45.4674 30.3792 45.228 29.7857 45.228 29.1669C45.2274 28.594 45.4344 28.0414 45.8087 27.6165C45.9562 27.4491 46.0533 27.2413 46.0882 27.0185C46.123 26.7956 46.0941 26.5671 46.0049 26.3607C45.9158 26.1544 45.7702 25.979 45.5859 25.8558C45.4016 25.7327 45.1865 25.6671 44.9666 25.667H36.1364V18.5191C36.8081 18.6971 37.5107 18.7149 38.1901 18.5712C38.8696 18.4275 39.5081 18.126 40.0565 17.6899C40.605 17.2538 41.0489 16.6946 41.3543 16.0551C41.6598 15.4156 41.8186 14.7129 41.8186 14.0007C41.8186 13.2885 41.6598 12.5858 41.3543 11.9463C41.0489 11.3069 40.605 10.7476 40.0565 10.3115C39.5081 9.87539 38.8696 9.57392 38.1901 9.4302C37.5107 9.28647 36.8081 9.30431 36.1364 9.48235V2.3659C36.1864 2.3659 36.2353 2.3659 36.2853 2.3659C41.87 2.73316 47.1308 5.18531 51.0757 9.25992C55.0206 13.3345 57.3769 18.75 57.7004 24.4852H57.6959ZM19.3773 8.7182C23.3035 4.87946 28.4473 2.62427 33.8635 2.36706V11.3991C33.8636 11.6249 33.9275 11.8457 34.0475 12.0349C34.1674 12.2241 34.3383 12.3736 34.5393 12.4651C34.7403 12.5566 34.9629 12.5862 35.18 12.5505C35.3971 12.5147 35.5995 12.4151 35.7625 12.2636C36.1765 11.8795 36.7148 11.667 37.2729 11.6674C37.8757 11.6674 38.4538 11.9133 38.88 12.3508C39.3063 12.7884 39.5457 13.3819 39.5457 14.0007C39.5457 14.6195 39.3063 15.213 38.88 15.6506C38.4538 16.0881 37.8757 16.334 37.2729 16.334C36.7148 16.3344 36.1765 16.1219 35.7625 15.7378C35.5995 15.5863 35.3971 15.4867 35.18 15.4509C34.9629 15.4152 34.7403 15.4448 34.5393 15.5364C34.3383 15.6279 34.1674 15.7773 34.0475 15.9665C33.9275 16.1557 33.8636 16.3766 33.8635 16.6023V25.667H26.9005C27.074 24.9774 27.0914 24.2563 26.9513 23.5587C26.8113 22.8612 26.5177 22.2058 26.0928 21.6428C25.668 21.0798 25.1232 20.624 24.5003 20.3105C23.8774 19.9969 23.1929 19.8339 22.4991 19.8339C21.8053 19.8339 21.1208 19.9969 20.4979 20.3105C19.875 20.624 19.3302 21.0798 18.9054 21.6428C18.4805 22.2058 18.1869 22.8612 18.0469 23.5587C17.9069 24.2563 17.9242 24.9774 18.0977 25.667H12.2711C12.2588 22.4925 12.8834 19.3493 14.1059 16.4334C15.3285 13.5175 17.1229 10.8912 19.3773 8.7182ZM12.3939 28.0003H19.9648C20.1847 28.0002 20.3999 27.9346 20.5842 27.8114C20.7685 27.6883 20.9141 27.5129 21.0032 27.3066C21.0923 27.1002 21.1212 26.8717 21.0864 26.6488C21.0516 26.4259 20.9545 26.2182 20.8069 26.0508C20.4327 25.6259 20.2257 25.0733 20.2262 24.5004C20.2262 23.8816 20.4657 23.2881 20.8919 22.8505C21.3182 22.4129 21.8963 22.1671 22.4991 22.1671C23.1019 22.1671 23.68 22.4129 24.1063 22.8505C24.5325 23.2881 24.772 23.8816 24.772 24.5004C24.7725 25.0733 24.5655 25.6259 24.1913 26.0508C24.0437 26.2182 23.9466 26.4259 23.9118 26.6488C23.877 26.8717 23.9059 27.1002 23.995 27.3066C24.0842 27.5129 24.2297 27.6883 24.414 27.8114C24.5983 27.9346 24.8135 28.0002 25.0334 28.0003H33.8635V35.1482C33.1918 34.9702 32.4893 34.9524 31.8098 35.0961C31.1303 35.2398 30.4919 35.5413 29.9434 35.9774C29.395 36.4135 28.951 36.9727 28.6456 37.6122C28.3402 38.2517 28.1814 38.9544 28.1814 39.6666C28.1814 40.3788 28.3402 41.0815 28.6456 41.721C28.951 42.3604 29.395 42.9196 29.9434 43.3558C30.4919 43.7919 31.1303 44.0934 31.8098 44.2371C32.4893 44.3808 33.1918 44.363 33.8635 44.185V52.4995H27.0449C27.0273 51.1043 26.6618 49.7369 25.9832 48.5278C25.3046 47.3188 24.3356 46.3084 23.1685 45.5931C20.1613 43.7254 17.621 41.162 15.7502 38.1075C13.8795 35.0529 12.7301 31.5918 12.3939 28.0003ZM40.6822 66.4991C40.6822 66.8085 40.5625 67.1052 40.3493 67.324C40.1362 67.5428 39.8471 67.6657 39.5457 67.6657H30.4542C30.1528 67.6657 29.8637 67.5428 29.6506 67.324C29.4375 67.1052 29.3178 66.8085 29.3178 66.4991V64.1658H40.6822V66.4991ZM46.3644 55.9994V60.6659C46.3644 60.9754 46.2447 61.2721 46.0315 61.4909C45.8184 61.7097 45.5294 61.8326 45.228 61.8326H24.772C24.4706 61.8326 24.1815 61.7097 23.9684 61.4909C23.7553 61.2721 23.6355 60.9754 23.6355 60.6659V55.9994C23.6355 55.69 23.7553 55.3933 23.9684 55.1745C24.1815 54.9557 24.4706 54.8328 24.772 54.8328H45.228C45.5294 54.8328 45.8184 54.9557 46.0315 55.1745C46.2447 55.3933 46.3644 55.69 46.3644 55.9994ZM42.9551 52.4995H36.1364V42.2682C36.1363 42.0424 36.0724 41.8216 35.9525 41.6324C35.8325 41.4432 35.6617 41.2937 35.4607 41.2022C35.2596 41.1107 35.0371 41.081 34.8199 41.1168C34.6028 41.1526 34.4005 41.2522 34.2374 41.4037C33.8234 41.7878 33.2851 42.0003 32.7271 41.9999C32.1243 41.9999 31.5462 41.754 31.1199 41.3165C30.6937 40.8789 30.4542 40.2854 30.4542 39.6666C30.4542 39.0478 30.6937 38.4543 31.1199 38.0167C31.5462 37.5792 32.1243 37.3333 32.7271 37.3333C33.2851 37.3329 33.8234 37.5454 34.2374 37.9295C34.4005 38.081 34.6028 38.1806 34.8199 38.2164C35.0371 38.2521 35.2596 38.2225 35.4607 38.1309C35.6617 38.0394 35.8325 37.89 35.9525 37.7008C36.0724 37.5116 36.1363 37.2907 36.1364 37.065V28.0003H43.0994C42.926 28.6899 42.9086 29.411 43.0486 30.1086C43.1886 30.8061 43.4823 31.4615 43.9071 32.0245C44.332 32.5875 44.8767 33.0433 45.4996 33.3568C46.1225 33.6703 46.8071 33.8334 47.5008 33.8334C48.1946 33.8334 48.8792 33.6703 49.5021 33.3568C50.125 33.0433 50.6697 32.5875 51.0946 32.0245C51.5194 31.4615 51.8131 30.8061 51.9531 30.1086C52.0931 29.411 52.0757 28.6899 51.9023 28.0003H57.6038C57.2536 31.5836 56.1007 35.0352 54.2353 38.0851C52.3699 41.135 49.8425 43.7007 46.8508 45.5814C45.6807 46.2979 44.7085 47.3096 44.0267 48.5205C43.3448 49.7313 42.9759 51.1011 42.9551 52.4995Z" fill="#1E81CE"/>
</g>
<defs>
<clipPath id="clip0">
<rect width="70" height="70" fill="white"/>
</clipPath>
</defs>
</svg>
