<svg width="70" height="70" viewBox="0 0 70 70" fill="none" xmlns="http://www.w3.org/2000/svg">
<path d="M6.45916 34.7746C6.45811 29.1735 8.11822 23.698 11.2295 19.0406C14.3407 14.3832 18.7634 10.7531 23.938 8.60955C29.1126 6.46599 34.8067 5.90524 40.3001 6.99824C45.7934 8.09123 50.8392 10.7889 54.7992 14.7499L58 11.5491C51.8337 5.4206 43.4892 1.98669 34.7955 2.00004C26.1017 2.01339 17.7678 5.47289 11.6203 11.6203C5.47289 17.7678 2.01339 26.1017 2.00004 34.7955C1.98669 43.4892 5.4206 51.8337 11.5491 58L14.7499 54.7992C12.1178 52.1716 10.0305 49.05 8.60771 45.6136C7.18497 42.1773 6.45482 38.4938 6.45916 34.7746Z" fill="#9BC9FF"/>
<path d="M68 41.9814V28.4064H59.1361C58.6148 26.5438 57.8736 24.7498 56.9281 23.0624L63.1914 16.7999L58.3918 12L55.1951 15.1935L45.5937 24.7955C48.3096 27.562 49.8233 31.289 49.8055 35.1659C49.7877 39.0428 48.2398 42.7558 45.4986 45.4972C42.7573 48.2386 39.0445 49.7866 35.1679 49.8044C31.2913 49.8222 27.5644 48.3084 24.7981 45.5923L15.1967 55.1943L12 58.3912L16.7996 63.1911L23.0618 56.9274C24.7501 57.8732 26.5451 58.6145 28.4088 59.1356V68H41.983V59.1356C43.8455 58.6142 45.6394 57.8729 47.3266 56.9274L53.5888 63.1911L63.188 53.5913L56.9247 47.3288C57.8716 45.6405 58.614 43.8454 59.1361 41.9814H68Z" fill="#9BC9FF"/>
<path d="M35 38C36.6569 38 38 36.6569 38 35C38 33.3431 36.6569 32 35 32C33.3431 32 32 33.3431 32 35C32 36.6569 33.3431 38 35 38Z" fill="#9BC9FF"/>
<path d="M33.8708 62.2007H36.1373V64.4671H33.8708V62.2007Z" fill="#1E81CE"/>
<path d="M53.4229 55.0367L55.0254 53.4342L56.628 55.0367L55.0254 56.6393L53.4229 55.0367Z" fill="#1E81CE"/>
<path d="M62.2007 33.8707H64.4671V36.1371H62.2007V33.8707Z" fill="#1E81CE"/>
<path d="M67.8668 27.0716H59.8324C59.394 25.6889 58.8386 24.3462 58.1723 23.0578L63.8507 17.3782C64.0632 17.1657 64.1825 16.8775 64.1825 16.577C64.1825 16.2765 64.0632 15.9883 63.8507 15.7758L59.0426 10.9688C55.8969 7.76271 52.1472 5.21175 48.0099 3.4633C43.8726 1.71485 39.4299 0.803577 34.9384 0.782126C30.4469 0.760675 25.9957 1.62947 21.8419 3.33833C17.6882 5.04718 13.9142 7.56221 10.7381 10.7381C7.56197 13.914 5.04668 17.6878 3.33753 21.8414C1.62839 25.9951 0.759272 30.4462 0.780406 34.9377C0.801539 39.4292 1.7125 43.872 3.46066 48.0094C5.20882 52.1468 7.75951 55.8967 10.9654 59.0426L15.7724 63.8508C15.9849 64.0632 16.2731 64.1825 16.5736 64.1825C16.8741 64.1825 17.1622 64.0632 17.3748 63.8508L23.0544 58.1723C24.3439 58.8383 25.6878 59.3933 27.0716 59.8313V67.8668C27.0716 68.1674 27.1909 68.4556 27.4035 68.6681C27.616 68.8806 27.9042 69 28.2048 69H41.8032C42.1037 69 42.392 68.8806 42.6045 68.6681C42.817 68.4556 42.9364 68.1674 42.9364 67.8668V59.8324C44.3189 59.3943 45.6617 58.8393 46.9502 58.1734L52.6298 63.8519C52.8423 64.0643 53.1305 64.1837 53.431 64.1837C53.7314 64.1837 54.0196 64.0643 54.2321 63.8519L63.8473 54.2367C64.0598 54.0242 64.1791 53.736 64.1791 53.4355C64.1791 53.135 64.0598 52.8468 63.8473 52.6343L58.1689 46.9547C58.8361 45.6649 59.3923 44.3206 59.8313 42.9364H67.8668C68.1673 42.9364 68.4556 42.817 68.6681 42.6045C68.8806 42.392 69 42.1037 69 41.8032V28.2048C69 27.9042 68.8806 27.616 68.6681 27.4035C68.4556 27.191 68.1673 27.0716 67.8668 27.0716ZM12.5666 12.5666C18.3772 6.75414 26.2172 3.42415 34.4347 3.2783C42.6522 3.13244 50.6054 6.1821 56.6186 11.7847L55.0186 13.3848C49.4264 8.22396 42.0543 5.42694 34.4461 5.57949C26.838 5.73204 19.584 8.82231 14.2031 14.2031C8.82229 19.584 5.73201 26.838 5.57947 34.4462C5.42692 42.0543 8.22393 49.4264 13.3848 55.0186L11.7847 56.6187C6.18207 50.6054 3.13241 42.6522 3.27827 34.4347C3.42413 26.2172 6.75411 18.3772 12.5666 12.5666ZM44.6192 25.3888C47.1351 27.946 48.5386 31.3937 48.524 34.9811C48.5094 38.5684 47.0778 42.0046 44.5412 44.5412C42.0046 47.0778 38.5683 48.5094 34.981 48.524C31.3937 48.5386 27.946 47.1351 25.3888 44.6192C25.1762 44.4068 24.8881 44.2874 24.5876 44.2874C24.2871 44.2874 23.9989 44.4068 23.7864 44.6192L14.9882 53.4174C10.2355 48.2536 7.66295 41.4525 7.80832 34.436C7.95369 27.4195 10.8058 20.7308 15.7683 15.7683C20.7307 10.8058 27.4195 7.95372 34.436 7.80835C41.4525 7.66298 48.2536 10.2356 53.4174 14.9883L44.6192 23.7853C44.5138 23.8905 44.4302 24.0155 44.3732 24.1531C44.3162 24.2907 44.2868 24.4381 44.2868 24.587C44.2868 24.736 44.3162 24.8834 44.3732 25.021C44.4302 25.1586 44.5138 25.2835 44.6192 25.3888ZM66.7336 40.67H58.987C58.7393 40.6698 58.4984 40.7509 58.3011 40.9007C58.1038 41.0505 57.961 41.2608 57.8946 41.4995C57.3969 43.2771 56.6889 44.989 55.7857 46.5989C55.664 46.8149 55.6165 47.0649 55.6504 47.3105C55.6844 47.5562 55.798 47.7839 55.9739 47.9587L61.4461 53.4321L53.4343 61.4438L47.961 55.9716C47.7861 55.7958 47.5584 55.6822 47.3128 55.6482C47.0672 55.6142 46.8172 55.6618 46.6011 55.7835C44.9912 56.6867 43.2793 57.3946 41.5017 57.8924C41.2631 57.9588 41.0527 58.1015 40.9029 58.2988C40.7531 58.4961 40.6721 58.7371 40.6722 58.9848V66.7336H29.338V58.9871C29.3381 58.7393 29.2571 58.4984 29.1073 58.3011C28.9574 58.1038 28.7471 57.961 28.5085 57.8946C26.7309 57.3969 25.019 56.6889 23.409 55.7858C23.193 55.664 22.943 55.6165 22.6974 55.6505C22.4518 55.6844 22.2241 55.7981 22.0492 55.9739L16.5758 61.4461L13.3712 58.2414L24.6182 46.9955C27.6504 49.6206 31.5643 50.9999 35.5723 50.8557C39.5804 50.7116 43.3851 49.0548 46.2209 46.2187C49.0567 43.3826 50.7131 39.5777 50.8568 35.5697C51.0005 31.5616 49.6209 27.6478 46.9955 24.6159L58.2414 13.3689L61.4461 16.5736L55.9739 22.047C55.798 22.2218 55.6844 22.4495 55.6504 22.6952C55.6165 22.9408 55.664 23.1908 55.7857 23.4068C56.6891 25.0167 57.397 26.7286 57.8946 28.5062C57.961 28.7449 58.1038 28.9552 58.3011 29.105C58.4984 29.2548 58.7393 29.3359 58.987 29.3357H66.7336V40.67Z" fill="#1E81CE"/>
<path d="M36.1371 30.632V18.0059C36.1371 17.7053 36.0177 17.4171 35.8052 17.2046C35.5927 16.9921 35.3045 16.8727 35.0039 16.8727C34.7034 16.8727 34.4152 16.9921 34.2026 17.2046C33.9901 17.4171 33.8707 17.7053 33.8707 18.0059V30.632C33.0919 30.8356 32.3814 31.243 31.8122 31.8122C31.243 32.3814 30.8357 33.0919 30.632 33.8707H22.5387C22.2382 33.8707 21.9499 33.9901 21.7374 34.2026C21.5249 34.4151 21.4055 34.7034 21.4055 35.0039C21.4055 35.3044 21.5249 35.5927 21.7374 35.8052C21.9499 36.0177 22.2382 36.1371 22.5387 36.1371H30.632C30.8302 36.9104 31.2295 37.6175 31.7893 38.1866C32.3491 38.7556 33.0495 39.1665 33.8195 39.3773C34.5894 39.5881 35.4014 39.5914 36.1731 39.3869C36.9447 39.1824 37.6485 38.7774 38.213 38.2129C38.7774 37.6485 39.1825 36.9447 39.387 36.173C39.5915 35.4014 39.5881 34.5894 39.3773 33.8194C39.1665 33.0495 38.7557 32.3491 38.1866 31.7892C37.6175 31.2294 36.9104 30.8302 36.1371 30.632ZM35.0039 37.2703C34.5557 37.2703 34.1175 37.1374 33.7448 36.8883C33.3721 36.6393 33.0816 36.2853 32.91 35.8712C32.7385 35.4571 32.6936 35.0014 32.7811 34.5617C32.8685 34.1221 33.0844 33.7183 33.4013 33.4013C33.7183 33.0843 34.1221 32.8685 34.5618 32.781C35.0014 32.6936 35.4571 32.7385 35.8712 32.91C36.2854 33.0816 36.6393 33.372 36.8884 33.7448C37.1374 34.1175 37.2703 34.5556 37.2703 35.0039C37.2703 35.605 37.0316 36.1815 36.6065 36.6065C36.1815 37.0315 35.605 37.2703 35.0039 37.2703Z" fill="#1E81CE"/>
<path d="M35.0041 13.4731C34.7035 13.4731 34.4153 13.3537 34.2028 13.1412C33.9902 12.9287 33.8708 12.6405 33.8708 12.3399V10.0735C33.8708 9.77297 33.9902 9.48473 34.2028 9.27221C34.4153 9.0597 34.7035 8.94031 35.0041 8.94031C35.3046 8.94031 35.5928 9.0597 35.8053 9.27221C36.0179 9.48473 36.1373 9.77297 36.1373 10.0735V12.3399C36.1373 12.6405 36.0179 12.9287 35.8053 13.1412C35.5928 13.3537 35.3046 13.4731 35.0041 13.4731Z" fill="#1E81CE"/>
<path d="M46.3359 16.5101C46.1371 16.5099 45.9418 16.4574 45.7697 16.3579C45.5976 16.2583 45.4547 16.1152 45.3554 15.943C45.2561 15.7708 45.2038 15.5754 45.2039 15.3766C45.2039 15.1778 45.2563 14.9825 45.3557 14.8103L46.4889 12.8465C46.6402 12.5883 46.8875 12.4005 47.1768 12.324C47.4661 12.2475 47.774 12.2886 48.0331 12.4382C48.2923 12.5878 48.4817 12.8339 48.5601 13.1227C48.6385 13.4115 48.5995 13.7195 48.4516 13.9797L47.3184 15.9435C47.2188 16.1159 47.0756 16.2591 46.9031 16.3586C46.7307 16.458 46.535 16.5103 46.3359 16.5101Z" fill="#1E81CE"/>
<path d="M23.672 16.5101C23.4729 16.5103 23.2772 16.458 23.1048 16.3586C22.9323 16.2591 22.789 16.1159 22.6895 15.9435L21.5563 13.9797C21.4084 13.7195 21.3694 13.4115 21.4478 13.1227C21.5262 12.8339 21.7156 12.5878 21.9748 12.4382C22.2339 12.2886 22.5418 12.2475 22.8311 12.324C23.1204 12.4005 23.3677 12.5883 23.519 12.8465L24.6522 14.8103C24.7516 14.9825 24.804 15.1778 24.804 15.3766C24.8041 15.5754 24.7518 15.7708 24.6525 15.943C24.5532 16.1152 24.4103 16.2583 24.2382 16.3579C24.0661 16.4574 23.8708 16.5099 23.672 16.5101Z" fill="#1E81CE"/>
<path d="M15.3757 24.8051C15.1767 24.8056 14.9812 24.7532 14.8091 24.6533L12.8452 23.5201C12.5871 23.3688 12.3993 23.1215 12.3228 22.8322C12.2463 22.5429 12.2874 22.235 12.437 21.9759C12.5866 21.7167 12.8327 21.5273 13.1215 21.4489C13.4102 21.3705 13.7183 21.4095 13.9785 21.5574L15.9423 22.6906C16.1583 22.8153 16.3271 23.0079 16.4226 23.2383C16.518 23.4688 16.5348 23.7243 16.4702 23.9652C16.4057 24.2062 16.2634 24.4191 16.0655 24.571C15.8676 24.7228 15.6251 24.8051 15.3757 24.8051Z" fill="#1E81CE"/>
<path d="M12.34 36.1371H10.0736C9.77309 36.1371 9.48485 36.0177 9.27234 35.8052C9.05982 35.5927 8.94043 35.3045 8.94043 35.0039C8.94043 34.7034 9.05982 34.4152 9.27234 34.2026C9.48485 33.9901 9.77309 33.8707 10.0736 33.8707H12.34C12.6406 33.8707 12.9288 33.9901 13.1413 34.2026C13.3538 34.4152 13.4732 34.7034 13.4732 35.0039C13.4732 35.3045 13.3538 35.5927 13.1413 35.8052C12.9288 36.0177 12.6406 36.1371 12.34 36.1371Z" fill="#1E81CE"/>
<path d="M13.4142 48.6025C13.1647 48.6025 12.9222 48.5201 12.7243 48.3683C12.5264 48.2164 12.3842 48.0035 12.3196 47.7626C12.2551 47.5216 12.2718 47.2661 12.3673 47.0356C12.4627 46.8052 12.6315 46.6126 12.8476 46.4879L14.8114 45.3547C14.9403 45.2791 15.0829 45.2298 15.231 45.2095C15.3791 45.1893 15.5297 45.1985 15.6742 45.2367C15.8186 45.2749 15.9541 45.3413 16.0729 45.4321C16.1916 45.5229 16.2912 45.6363 16.3659 45.7657C16.4406 45.8951 16.489 46.038 16.5083 46.1862C16.5275 46.3344 16.5173 46.485 16.4781 46.6292C16.439 46.7734 16.3717 46.9085 16.2801 47.0266C16.1885 47.1447 16.0745 47.2436 15.9446 47.3174L13.9808 48.4506C13.8087 48.5505 13.6131 48.6029 13.4142 48.6025Z" fill="#1E81CE"/>
<path d="M35.0039 46.336C33.5151 46.3402 32.0404 46.0484 30.6654 45.4776C29.2904 44.9068 28.0426 44.0684 26.9944 43.0112C26.8863 42.9065 26.8002 42.7813 26.741 42.643C26.6818 42.5047 26.6508 42.3559 26.6497 42.2055C26.6486 42.055 26.6775 41.9058 26.7347 41.7667C26.7918 41.6275 26.8762 41.5011 26.9827 41.3948C27.0892 41.2886 27.2159 41.2046 27.3552 41.1478C27.4946 41.0911 27.6438 41.0626 27.7943 41.0641C27.9447 41.0656 28.0934 41.0971 28.2316 41.1567C28.3697 41.2163 28.4946 41.3027 28.599 41.4111C29.437 42.2671 30.4364 42.9484 31.5394 43.4156C32.6424 43.8828 33.8271 44.1266 35.0249 44.133C36.2228 44.1393 37.41 43.9081 38.5179 43.4526C39.6258 42.9972 40.6324 42.3265 41.4794 41.4795C42.3264 40.6325 42.997 39.6259 43.4525 38.518C43.908 37.4101 44.1392 36.2229 44.1328 35.0251C44.1265 33.8272 43.8826 32.6425 43.4154 31.5395C42.9482 30.4365 42.2669 29.4371 41.411 28.5991C41.3026 28.4948 41.2161 28.3698 41.1565 28.2317C41.097 28.0935 41.0655 27.9449 41.064 27.7944C41.0625 27.6439 41.0909 27.4947 41.1477 27.3553C41.2045 27.216 41.2885 27.0894 41.3947 26.9828C41.5009 26.8763 41.6273 26.792 41.7665 26.7348C41.9057 26.6776 42.0549 26.6487 42.2053 26.6498C42.3558 26.6509 42.5045 26.6819 42.6429 26.7411C42.7812 26.8003 42.9064 26.8865 43.0111 26.9945C44.5943 28.5792 45.6724 30.5975 46.1092 32.7946C46.5459 34.9917 46.3217 37.2689 45.4649 39.3386C44.608 41.4083 43.157 43.1776 41.2951 44.4231C39.4332 45.6685 37.2439 46.3342 35.0039 46.336Z" fill="#1E81CE"/>
</svg>
