<svg width="70" height="70" viewBox="0 0 70 70" fill="none" xmlns="http://www.w3.org/2000/svg">
<path d="M20.3391 39.5095V45.1484C20.3391 46.3448 20.8144 47.4922 21.6604 48.3382C22.5064 49.1842 23.6538 49.6595 24.8502 49.6595H45.1502C46.3466 49.6595 47.4941 49.1842 48.3401 48.3382C49.1861 47.4922 49.6613 46.3448 49.6613 45.1484V24.8484C49.6613 23.652 49.1861 22.5046 48.3401 21.6586C47.4941 20.8126 46.3466 20.3373 45.1502 20.3373H24.8502C23.6538 20.3373 22.5064 20.8126 21.6604 21.6586C20.8144 22.5046 20.3391 23.652 20.3391 24.8484V39.5095ZM28.2336 33.8706C28.2336 33.2724 28.4712 32.6987 28.8942 32.2757C29.3172 31.8527 29.8909 31.6151 30.4891 31.6151V29.3595C30.4891 28.1631 30.9644 27.0157 31.8104 26.1697C32.6564 25.3237 33.8038 24.8484 35.0002 24.8484C36.1966 24.8484 37.3441 25.3237 38.1901 26.1697C39.0361 27.0157 39.5113 28.1631 39.5113 29.3595V31.6151C40.1095 31.6151 40.6833 31.8527 41.1063 32.2757C41.5293 32.6987 41.7669 33.2724 41.7669 33.8706V42.8928C41.7669 43.491 41.5293 44.0648 41.1063 44.4878C40.6833 44.9108 40.1095 45.1484 39.5113 45.1484H30.4891C29.8909 45.1484 29.3172 44.9108 28.8942 44.4878C28.4712 44.0648 28.2336 43.491 28.2336 42.8928V33.8706Z" fill="#9BC9FF"/>
<path d="M35.0002 10.1874C36.2459 10.1874 37.2557 9.17753 37.2557 7.93183C37.2557 6.68612 36.2459 5.67627 35.0002 5.67627C33.7545 5.67627 32.7446 6.68612 32.7446 7.93183C32.7446 9.17753 33.7545 10.1874 35.0002 10.1874Z" fill="#9BC9FF"/>
<path d="M53.0446 9.05957C54.2903 9.05957 55.3002 8.04973 55.3002 6.80402C55.3002 5.55831 54.2903 4.54846 53.0446 4.54846C51.7989 4.54846 50.7891 5.55831 50.7891 6.80402C50.7891 8.04973 51.7989 9.05957 53.0446 9.05957Z" fill="#9BC9FF"/>
<path d="M19.2111 6.80396C20.4568 6.80396 21.4667 5.79411 21.4667 4.5484C21.4667 3.30269 20.4568 2.29285 19.2111 2.29285C17.9654 2.29285 16.9556 3.30269 16.9556 4.5484C16.9556 5.79411 17.9654 6.80396 19.2111 6.80396Z" fill="#9BC9FF"/>
<path d="M44.0224 67.704C45.2681 67.704 46.278 66.6941 46.278 65.4484C46.278 64.2027 45.2681 63.1929 44.0224 63.1929C42.7767 63.1929 41.7668 64.2027 41.7668 65.4484C41.7668 66.6941 42.7767 67.704 44.0224 67.704Z" fill="#9BC9FF"/>
<path d="M54.1723 60.9374C55.418 60.9374 56.4279 59.9275 56.4279 58.6818C56.4279 57.4361 55.418 56.4263 54.1723 56.4263C52.9266 56.4263 51.9167 57.4361 51.9167 58.6818C51.9167 59.9275 52.9266 60.9374 54.1723 60.9374Z" fill="#9BC9FF"/>
<path d="M19.2111 67.704C20.4568 67.704 21.4667 66.6941 21.4667 65.4484C21.4667 64.2027 20.4568 63.1929 19.2111 63.1929C17.9654 63.1929 16.9556 64.2027 16.9556 65.4484C16.9556 66.6941 17.9654 67.704 19.2111 67.704Z" fill="#9BC9FF"/>
<path d="M61.5576 22.4818C62.7571 22.1455 63.4568 20.9005 63.1205 19.701C62.7842 18.5016 61.5392 17.8019 60.3398 18.1382C59.1403 18.4744 58.4406 19.7194 58.7769 20.9189C59.1132 22.1183 60.3582 22.8181 61.5576 22.4818Z" fill="#9BC9FF"/>
<path d="M66.0811 50.674C67.2805 50.3377 67.9802 49.0928 67.6439 47.8933C67.3077 46.6938 66.0627 45.9941 64.8632 46.3304C63.6638 46.6667 62.964 47.9117 63.3003 49.1111C63.6366 50.3106 64.8816 51.0103 66.0811 50.674Z" fill="#9BC9FF"/>
<path d="M66.0732 32.6296C67.2727 32.2933 67.9724 31.0483 67.6361 29.8489C67.2998 28.6494 66.0549 27.9497 64.8554 28.286C63.6559 28.6223 62.9562 29.8672 63.2925 31.0667C63.6288 32.2662 64.8738 32.9659 66.0732 32.6296Z" fill="#9BC9FF"/>
<path d="M11.237 20.9556C11.5733 19.7561 10.8735 18.5111 9.67407 18.1749C8.47461 17.8386 7.22964 18.5383 6.89334 19.7377C6.55705 20.9372 7.25678 22.1822 8.45623 22.5185C9.65569 22.8548 10.9007 22.155 11.237 20.9556Z" fill="#9BC9FF"/>
<path d="M11.2479 53.5291C11.5058 52.3108 10.7272 51.1141 9.50887 50.8563C8.29057 50.5984 7.0939 51.377 6.83604 52.5953C6.57818 53.8136 7.35677 55.0103 8.57507 55.2682C9.79338 55.526 10.99 54.7474 11.2479 53.5291Z" fill="#9BC9FF"/>
<path d="M4.46096 39.5094C4.90917 39.5269 5.35243 39.4104 5.73408 39.1747C6.11574 38.939 6.41846 38.5949 6.60356 38.1863C6.78866 37.7778 6.84774 37.3233 6.77324 36.881C6.69874 36.4386 6.49406 36.0286 6.18533 35.7031L5.67783 36.1261L6.18533 35.7031C5.93087 35.4349 5.61439 35.2334 5.26372 35.1162C4.91306 34.9991 4.53898 34.9699 4.1744 35.0313C3.80982 35.0927 3.46593 35.2428 3.17299 35.4684C2.88004 35.6939 2.64703 35.988 2.49446 36.3248C2.3419 36.6615 2.27445 37.0306 2.29806 37.3996C2.32167 37.7686 2.43561 38.1261 2.62986 38.4406C2.82411 38.7552 3.0927 39.0172 3.41201 39.2036C3.73131 39.3899 4.09153 39.495 4.46096 39.5094Z" fill="#9BC9FF"/>
<path d="M35.6267 39.4099C36.8262 39.0736 37.5259 37.8286 37.1896 36.6291C36.8533 35.4297 35.6083 34.73 34.4089 35.0663C33.2094 35.4025 32.5097 36.6475 32.846 37.847C33.1823 39.0464 34.4273 39.7462 35.6267 39.4099Z" fill="#9BC9FF"/>
<path d="M39.5112 29.3596C39.5112 28.1632 39.036 27.0158 38.19 26.1698C37.344 25.3238 36.1965 24.8485 35.0001 24.8485C33.8037 24.8485 32.6563 25.3238 31.8103 26.1698C30.9643 27.0158 30.489 28.1632 30.489 29.3596V31.6152H39.5112V29.3596Z" fill="#9BC9FF"/>
<path d="M29.3613 11.3151H31.6169V13.5706H29.3613V11.3151Z" fill="#1E81CE"/>
<path d="M58.6833 38.3818H60.9389V40.6374H58.6833V38.3818Z" fill="#1E81CE"/>
<path d="M38.3835 56.4263H40.6391V58.6818H38.3835V56.4263Z" fill="#1E81CE"/>
<path d="M29.3613 59.8097H31.6169V62.0653H29.3613V59.8097Z" fill="#1E81CE"/>
<path d="M11.3167 33.8707H13.5722V36.1263H11.3167V33.8707Z" fill="#1E81CE"/>
<path d="M38.3835 11.3151H40.6391V13.5706H38.3835V11.3151Z" fill="#1E81CE"/>
<path d="M56.4277 29.3596H58.6833V31.6152H56.4277V29.3596Z" fill="#1E81CE"/>
<path d="M50.7888 18.0819H53.0444V20.3375H50.7888V18.0819Z" fill="#1E81CE"/>
<path d="M16.9556 18.0819H19.2111V20.3375H16.9556V18.0819Z" fill="#1E81CE"/>
<path d="M50.7888 49.6597H53.0444V51.9152H50.7888V49.6597Z" fill="#1E81CE"/>
<path d="M16.9556 49.6597H19.2111V51.9152H16.9556V49.6597Z" fill="#1E81CE"/>
<path d="M34.867 33.8707C34.0783 33.8961 33.3234 34.1971 32.7334 34.7212C32.1434 35.2453 31.7557 35.9595 31.6375 36.7397C31.5193 37.52 31.6781 38.317 32.0863 38.9923C32.4946 39.6677 33.1265 40.1787 33.8723 40.4366V42.8929H36.1279V40.4287C36.892 40.1611 37.5344 39.6278 37.9381 38.926C38.3417 38.2242 38.4797 37.4007 38.3269 36.6057C38.174 35.8107 37.7405 35.0971 37.1054 34.595C36.4703 34.0929 35.6759 33.8359 34.867 33.8707ZM36.1279 37.21C36.1338 37.3581 36.1104 37.5058 36.0592 37.6448C36.008 37.7838 35.9298 37.9114 35.8293 38.0202C35.7288 38.129 35.6078 38.217 35.4732 38.279C35.3387 38.3411 35.1932 38.376 35.0452 38.3818C34.8969 38.3876 34.749 38.3641 34.6099 38.3126C34.4707 38.2611 34.3431 38.1827 34.2343 38.0818C34.0704 37.9305 33.955 37.7339 33.9028 37.517C33.8506 37.3001 33.864 37.0725 33.9411 36.8632C34.0182 36.6538 34.1558 36.4721 34.3362 36.3409C34.5167 36.2097 34.732 36.135 34.955 36.1262H35.0001C35.2915 36.126 35.5718 36.2386 35.782 36.4404C35.9923 36.6423 36.1162 36.9177 36.1279 37.2089V37.21Z" fill="#1E81CE"/>
<path d="M40.639 30.6949V29.3596C40.639 27.8641 40.045 26.4298 38.9875 25.3723C37.93 24.3148 36.4957 23.7207 35.0002 23.7207C33.5046 23.7207 32.0704 24.3148 31.0129 25.3723C29.9554 26.4298 29.3613 27.8641 29.3613 29.3596V30.6949C28.7039 30.9273 28.1344 31.3571 27.7306 31.9256C27.3269 32.4941 27.1086 33.1734 27.1057 33.8707V42.8929C27.1057 43.7902 27.4622 44.6508 28.0967 45.2853C28.7312 45.9198 29.5917 46.2763 30.489 46.2763H39.5113C40.4086 46.2763 41.2691 45.9198 41.9036 45.2853C42.5381 44.6508 42.8946 43.7902 42.8946 42.8929V33.8707C42.8917 33.1734 42.6735 32.4941 42.2697 31.9256C41.866 31.3571 41.2964 30.9273 40.639 30.6949ZM31.6168 29.3596C31.6168 28.4623 31.9733 27.6017 32.6078 26.9672C33.2423 26.3327 34.1028 25.9763 35.0002 25.9763C35.8975 25.9763 36.758 26.3327 37.3925 26.9672C38.027 27.6017 38.3835 28.4623 38.3835 29.3596V30.4874H31.6168V29.3596ZM40.639 42.8929C40.639 43.192 40.5202 43.4789 40.3087 43.6904C40.0972 43.9019 39.8104 44.0207 39.5113 44.0207H30.489C30.1899 44.0207 29.9031 43.9019 29.6916 43.6904C29.4801 43.4789 29.3613 43.192 29.3613 42.8929V33.8707C29.3613 33.5716 29.4801 33.2847 29.6916 33.0732C29.9031 32.8617 30.1899 32.7429 30.489 32.7429H39.5113C39.8104 32.7429 40.0972 32.8617 40.3087 33.0732C40.5202 33.2847 40.639 33.5716 40.639 33.8707V42.8929Z" fill="#1E81CE"/>
<path d="M65.4501 45.1482C64.9477 45.1502 64.4522 45.2659 64.0009 45.4866L61.407 42.8927H50.789V40.6371H56.4279V38.3816H50.789V36.126H56.694L63.1077 32.9186C63.6698 33.457 64.4007 33.7847 65.1766 33.8462C65.9525 33.9077 66.7259 33.6992 67.3658 33.256C68.0057 32.8129 68.4728 32.1622 68.6881 31.4142C68.9034 30.6663 68.8537 29.8668 68.5474 29.1513C68.2411 28.4357 67.6969 27.848 67.007 27.4875C66.3172 27.1271 65.524 27.016 64.7616 27.1731C63.9993 27.3303 63.3147 27.746 62.8236 28.3499C62.3325 28.9538 62.0651 29.7088 62.0667 30.4871C62.0721 30.6243 62.086 30.7611 62.1085 30.8965L56.1617 33.8705H50.789V31.6149H54.1723V29.3594H50.789V27.1038H55.767L59.4887 23.3821C59.9403 23.603 60.4362 23.7187 60.939 23.7205C61.6081 23.7205 62.2623 23.522 62.8186 23.1503C63.375 22.7785 63.8087 22.2501 64.0648 21.6319C64.3208 21.0137 64.3878 20.3334 64.2573 19.6771C64.1268 19.0208 63.8045 18.4179 63.3313 17.9448C62.8582 17.4716 62.2553 17.1494 61.599 17.0188C60.9427 16.8883 60.2625 16.9553 59.6442 17.2113C59.026 17.4674 58.4976 17.9011 58.1258 18.4575C57.7541 19.0138 57.5556 19.668 57.5556 20.3371C57.5576 20.8396 57.6733 21.335 57.894 21.7863L54.8332 24.8483H50.789C50.7872 23.3533 50.1925 21.92 49.1354 20.8629C48.0783 19.8058 46.6451 19.2112 45.1501 19.2094V16.2929L51.5953 9.84881C52.0467 10.0695 52.5421 10.1852 53.0445 10.1871C53.7137 10.1871 54.3678 9.98871 54.9242 9.61695C55.4806 9.24518 55.9142 8.71678 56.1703 8.09855C56.4264 7.48033 56.4934 6.80005 56.3629 6.14375C56.2323 5.48745 55.9101 4.8846 55.4369 4.41143C54.9637 3.93826 54.3609 3.61603 53.7046 3.48548C53.0483 3.35494 52.368 3.42194 51.7498 3.67802C51.1316 3.93409 50.6032 4.36774 50.2314 4.92413C49.8596 5.48051 49.6612 6.13465 49.6612 6.80381C49.6631 7.30622 49.7788 7.80167 49.9995 8.253L42.8945 15.358V19.2094H40.639V15.826H38.3834V19.2094H36.1279V11.1074C36.8803 10.8414 37.5145 10.3179 37.9184 9.62948C38.3222 8.94107 38.4697 8.13206 38.3347 7.34544C38.1997 6.55882 37.791 5.84524 37.1808 5.33081C36.5706 4.81638 35.7982 4.53424 35.0001 4.53424C34.202 4.53424 33.4296 4.81638 32.8193 5.33081C32.2091 5.84524 31.8004 6.55882 31.6655 7.34544C31.5305 8.13206 31.678 8.94107 32.0818 9.62948C32.4856 10.3179 33.1198 10.8414 33.8723 11.1074V19.2094H31.6168V15.826H29.3612V19.2094H27.1056V10.848L22.2562 5.99857C22.4771 5.5469 22.5928 5.05104 22.5945 4.54825C22.5945 3.87909 22.3961 3.22496 22.0243 2.66857C21.6526 2.11219 21.1242 1.67854 20.5059 1.42246C19.8877 1.16638 19.2074 1.09938 18.5511 1.22993C17.8948 1.36047 17.292 1.68271 16.8188 2.15587C16.3456 2.62904 16.0234 3.23189 15.8929 3.8882C15.7623 4.5445 15.8293 5.22477 16.0854 5.843C16.3415 6.46122 16.7751 6.98962 17.3315 7.36139C17.8879 7.73316 18.542 7.93158 19.2112 7.93158C19.7136 7.92964 20.2091 7.81397 20.6604 7.59325L24.8501 11.7818V19.2094C23.3551 19.2112 21.9219 19.8058 20.8648 20.8629C19.8077 21.92 19.213 23.3533 19.2112 24.8483H15.167L12.1062 21.7863C12.3269 21.335 12.4426 20.8396 12.4445 20.3371C12.4445 19.668 12.2461 19.0138 11.8743 18.4575C11.5026 17.9011 10.9742 17.4674 10.3559 17.2113C9.73772 16.9553 9.05744 16.8883 8.40114 17.0188C7.74484 17.1494 7.14198 17.4716 6.66882 17.9448C6.19565 18.4179 5.87342 19.0208 5.74287 19.6771C5.61232 20.3334 5.67933 21.0137 5.9354 21.6319C6.19148 22.2501 6.62513 22.7785 7.18151 23.1503C7.7379 23.522 8.39203 23.7205 9.06119 23.7205C9.5636 23.7185 10.0591 23.6029 10.5104 23.3821L14.2321 27.1038H19.2112V29.3594H12.0363L6.12897 34.281C5.64485 34.0154 5.10227 33.8743 4.55008 33.8705C3.88092 33.8705 3.22679 34.0689 2.6704 34.4407C2.11402 34.8124 1.68037 35.3408 1.42429 35.9591C1.16821 36.5773 1.10121 37.2576 1.23176 37.9139C1.36231 38.5702 1.68454 39.173 2.15771 39.6462C2.63087 40.1193 3.23373 40.4416 3.89003 40.5721C4.54633 40.7027 5.22661 40.6357 5.84483 40.3796C6.46305 40.1235 6.99146 39.6899 7.36322 39.1335C7.73499 38.5771 7.93342 37.923 7.93342 37.2538C7.93418 36.8012 7.84326 36.3531 7.66613 35.9366L12.8528 31.6149H19.2112V33.8705H15.8279V36.126H19.2112V38.3816H9.06119V40.6371H19.2112V42.8927H12.9689L8.424 49.709C8.26191 49.6804 8.09794 49.6638 7.93342 49.6594C7.14882 49.6522 6.38568 49.9154 5.77234 50.4047C5.159 50.894 4.73287 51.5797 4.56564 52.3463C4.3984 53.1129 4.50025 53.9137 4.85405 54.614C5.20786 55.3143 5.79204 55.8714 6.50835 56.1917C7.22465 56.5119 8.02938 56.5757 8.78719 56.3723C9.54501 56.169 10.2097 55.7108 10.6694 55.075C11.1291 54.4392 11.3559 53.6644 11.3115 52.881C11.2672 52.0977 10.9544 51.3535 10.4258 50.7736L14.1757 45.1482H19.2112C19.213 46.6432 19.8077 48.0765 20.8648 49.1336C21.9219 50.1907 23.3551 50.7853 24.8501 50.7871V58.2147L20.6604 62.4032C20.2091 62.1825 19.7136 62.0669 19.2112 62.0649C18.542 62.0649 17.8879 62.2633 17.3315 62.6351C16.7751 63.0069 16.3415 63.5353 16.0854 64.1535C15.8293 64.7717 15.7623 65.452 15.8929 66.1083C16.0234 66.7646 16.3456 67.3675 16.8188 67.8406C17.292 68.3138 17.8948 68.636 18.5511 68.7666C19.2074 68.8971 19.8877 68.8301 20.5059 68.574C21.1242 68.318 21.6526 67.8843 22.0243 67.3279C22.3961 66.7715 22.5945 66.1174 22.5945 65.4482C22.5926 64.9458 22.4769 64.4504 22.2562 63.9991L27.1056 59.1496V50.7871H29.3612V57.5538H31.6168V50.7871H33.8723V60.4341L40.7224 64.7197C40.5383 65.5098 40.64 66.3396 41.0095 67.0619C41.3789 67.7842 41.9922 68.3524 42.7406 68.6656C43.489 68.9787 44.3242 69.0167 45.0979 68.7728C45.8717 68.5289 46.5341 68.0189 46.9676 67.3331C47.4011 66.6473 47.5777 65.8302 47.4662 65.0266C47.3546 64.223 46.962 63.4849 46.3581 62.9432C45.7542 62.4015 44.9779 62.0911 44.167 62.0672C43.356 62.0433 42.5628 62.3074 41.928 62.8126L36.1279 59.1846V50.7871H38.3834V54.1705H40.639V50.7871H42.8945V59.8094H50.9965C51.2625 60.5618 51.786 61.196 52.4744 61.5999C53.1628 62.0037 53.9718 62.1511 54.7584 62.0162C55.5451 61.8812 56.2587 61.4725 56.7731 60.8623C57.2875 60.2521 57.5697 59.4797 57.5697 58.6816C57.5697 57.8835 57.2875 57.111 56.7731 56.5008C56.2587 55.8906 55.5451 55.4819 54.7584 55.347C53.9718 55.212 53.1628 55.3595 52.4744 55.7633C51.786 56.1671 51.2625 56.8013 50.9965 57.5538H45.1501V50.7871C46.6451 50.7853 48.0783 50.1907 49.1354 49.1336C50.1925 48.0765 50.7872 46.6432 50.789 45.1482H60.4721L62.4051 47.0824C62.1844 47.5337 62.0687 48.0292 62.0667 48.5316C62.0667 49.2007 62.2652 49.8549 62.6369 50.4113C63.0087 50.9676 63.5371 51.4013 64.1553 51.6574C64.7736 51.9134 65.4538 51.9804 66.1101 51.8499C66.7664 51.7194 67.3693 51.3971 67.8425 50.924C68.3156 50.4508 68.6379 49.8479 68.7684 49.1916C68.899 48.5353 68.8319 47.8551 68.5759 47.2368C68.3198 46.6186 67.8861 46.0902 67.3298 45.7184C66.7734 45.3467 66.1192 45.1482 65.4501 45.1482ZM65.4501 29.3594C65.6731 29.3594 65.8912 29.4255 66.0766 29.5494C66.2621 29.6733 66.4067 29.8495 66.492 30.0556C66.5774 30.2616 66.5997 30.4884 66.5562 30.7072C66.5127 30.9259 66.4053 31.1269 66.2475 31.2846C66.0898 31.4423 65.8889 31.5497 65.6701 31.5932C65.4513 31.6368 65.2246 31.6144 65.0185 31.5291C64.8124 31.4437 64.6363 31.2992 64.5124 31.1137C64.3884 30.9282 64.3223 30.7102 64.3223 30.4871C64.3223 30.188 64.4411 29.9012 64.6526 29.6897C64.8641 29.4782 65.151 29.3594 65.4501 29.3594ZM60.939 19.2094C61.162 19.2094 61.3801 19.2755 61.5655 19.3994C61.751 19.5233 61.8955 19.6995 61.9809 19.9056C62.0663 20.1116 62.0886 20.3384 62.0451 20.5572C62.0016 20.7759 61.8942 20.9769 61.7364 21.1346C61.5787 21.2923 61.3778 21.3997 61.159 21.4432C60.9402 21.4868 60.7135 21.4644 60.5074 21.3791C60.3013 21.2937 60.1252 21.1492 60.0013 20.9637C59.8773 20.7782 59.8112 20.5602 59.8112 20.3371C59.8112 20.038 59.93 19.7512 60.1415 19.5397C60.353 19.3282 60.6399 19.2094 60.939 19.2094ZM53.0445 5.67603C53.2676 5.67603 53.4856 5.74217 53.6711 5.86609C53.8565 5.99002 54.0011 6.16615 54.0865 6.37223C54.1718 6.5783 54.1942 6.80506 54.1506 7.02383C54.1071 7.24259 53.9997 7.44354 53.842 7.60127C53.6843 7.75899 53.4833 7.8664 53.2645 7.90991C53.0458 7.95343 52.819 7.9311 52.6129 7.84574C52.4069 7.76038 52.2307 7.61583 52.1068 7.43037C51.9829 7.2449 51.9167 7.02686 51.9167 6.80381C51.9167 6.5047 52.0356 6.21785 52.2471 6.00635C52.4586 5.79485 52.7454 5.67603 53.0445 5.67603ZM35.0001 6.80381C35.2231 6.80381 35.4412 6.86995 35.6266 6.99387C35.8121 7.11779 35.9567 7.29393 36.042 7.5C36.1274 7.70608 36.1497 7.93284 36.1062 8.1516C36.0627 8.37037 35.9553 8.57132 35.7975 8.72904C35.6398 8.88677 35.4389 8.99418 35.2201 9.03769C35.0013 9.08121 34.7746 9.05887 34.5685 8.97352C34.3624 8.88816 34.1863 8.74361 34.0624 8.55815C33.9384 8.37268 33.8723 8.15464 33.8723 7.93158C33.8723 7.63248 33.9911 7.34562 34.2026 7.13413C34.4141 6.92263 34.701 6.80381 35.0001 6.80381ZM18.0834 4.54825C18.0834 4.3252 18.1496 4.10715 18.2735 3.92169C18.3974 3.73623 18.5735 3.59168 18.7796 3.50632C18.9857 3.42096 19.2124 3.39863 19.4312 3.44214C19.65 3.48566 19.8509 3.59307 20.0087 3.75079C20.1664 3.90852 20.2738 4.10947 20.3173 4.32823C20.3608 4.547 20.3385 4.77376 20.2531 4.97983C20.1678 5.18591 20.0232 5.36204 19.8378 5.48596C19.6523 5.60989 19.4342 5.67603 19.2112 5.67603C18.9121 5.67603 18.6252 5.55721 18.4137 5.34571C18.2022 5.13421 18.0834 4.84736 18.0834 4.54825ZM7.93342 20.3371C7.93342 20.1141 7.99956 19.896 8.12348 19.7106C8.2474 19.5251 8.42354 19.3806 8.62961 19.2952C8.83569 19.2099 9.06245 19.1875 9.28121 19.231C9.49998 19.2745 9.70093 19.382 9.85865 19.5397C10.0164 19.6974 10.1238 19.8984 10.1673 20.1171C10.2108 20.3359 10.1885 20.5626 10.1031 20.7687C10.0178 20.9748 9.87322 21.1509 9.68775 21.2749C9.50229 21.3988 9.28425 21.4649 9.06119 21.4649C8.76209 21.4649 8.47523 21.3461 8.26374 21.1346C8.05224 20.9231 7.93342 20.6362 7.93342 20.3371ZM4.55008 38.3816C4.32703 38.3816 4.10899 38.3154 3.92352 38.1915C3.73806 38.0676 3.59351 37.8915 3.50815 37.6854C3.42279 37.4793 3.40046 37.2526 3.44398 37.0338C3.48749 36.815 3.5949 36.6141 3.75262 36.4563C3.91035 36.2986 4.1113 36.1912 4.33006 36.1477C4.54883 36.1042 4.77559 36.1265 4.98166 36.2119C5.18774 36.2972 5.36387 36.4418 5.4878 36.6272C5.61172 36.8127 5.67786 37.0308 5.67786 37.2538C5.67786 37.5529 5.55904 37.8398 5.34754 38.0513C5.13604 38.2628 4.84919 38.3816 4.55008 38.3816ZM7.93342 54.1705C7.71036 54.1705 7.49232 54.1043 7.30686 53.9804C7.12139 53.8565 6.97684 53.6803 6.89149 53.4743C6.80613 53.2682 6.78379 53.0414 6.82731 52.8227C6.87082 52.6039 6.97823 52.403 7.13596 52.2452C7.29368 52.0875 7.49463 51.9801 7.7134 51.9366C7.93217 51.8931 8.15892 51.9154 8.365 52.0008C8.57107 52.0861 8.74721 52.2307 8.87113 52.4161C8.99505 52.6016 9.06119 52.8196 9.06119 53.0427C9.06119 53.3418 8.94238 53.6287 8.73088 53.8402C8.51938 54.0517 8.23252 54.1705 7.93342 54.1705ZM19.2112 66.576C18.9881 66.576 18.7701 66.5099 18.5846 66.386C18.3992 66.262 18.2546 66.0859 18.1693 65.8798C18.0839 65.6738 18.0616 65.447 18.1051 65.2282C18.1486 65.0095 18.256 64.8085 18.4137 64.6508C18.5715 64.4931 18.7724 64.3857 18.9912 64.3421C19.2099 64.2986 19.4367 64.321 19.6428 64.4063C19.8489 64.4917 20.025 64.6362 20.1489 64.8217C20.2728 65.0071 20.339 65.2252 20.339 65.4482C20.339 65.7474 20.2202 66.0342 20.0087 66.2457C19.7972 66.4572 19.5103 66.576 19.2112 66.576ZM44.0223 64.3205C44.2454 64.3205 44.4634 64.3866 44.6489 64.5105C44.8343 64.6345 44.9789 64.8106 45.0642 65.0167C45.1496 65.2227 45.1719 65.4495 45.1284 65.6683C45.0849 65.887 44.9775 66.088 44.8198 66.2457C44.662 66.4034 44.4611 66.5108 44.2423 66.5544C44.0236 66.5979 43.7968 66.5755 43.5907 66.4902C43.3847 66.4048 43.2085 66.2603 43.0846 66.0748C42.9607 65.8893 42.8945 65.6713 42.8945 65.4482C42.8945 65.1491 43.0133 64.8623 43.2248 64.6508C43.4363 64.4393 43.7232 64.3205 44.0223 64.3205ZM54.1723 57.5538C54.3954 57.5538 54.6134 57.6199 54.7989 57.7439C54.9843 57.8678 55.1289 58.0439 55.2142 58.25C55.2996 58.4561 55.3219 58.6828 55.2784 58.9016C55.2349 59.1204 55.1275 59.3213 54.9698 59.479C54.812 59.6368 54.6111 59.7442 54.3923 59.7877C54.1736 59.8312 53.9468 59.8089 53.7407 59.7235C53.5346 59.6381 53.3585 59.4936 53.2346 59.3081C53.1107 59.1227 53.0445 58.9046 53.0445 58.6816C53.0445 58.3825 53.1633 58.0956 53.3748 57.8841C53.5863 57.6726 53.8732 57.5538 54.1723 57.5538ZM48.5334 45.1482C48.5334 46.0456 48.177 46.9061 47.5425 47.5406C46.908 48.1751 46.0474 48.5316 45.1501 48.5316H24.8501C23.9528 48.5316 23.0922 48.1751 22.4577 47.5406C21.8232 46.9061 21.4668 46.0456 21.4668 45.1482V24.8483C21.4668 23.9509 21.8232 23.0904 22.4577 22.4559C23.0922 21.8214 23.9528 21.4649 24.8501 21.4649H45.1501C46.0474 21.4649 46.908 21.8214 47.5425 22.4559C48.177 23.0904 48.5334 23.9509 48.5334 24.8483V45.1482ZM65.4501 49.6594C65.227 49.6594 65.009 49.5932 64.8235 49.4693C64.6381 49.3454 64.4935 49.1692 64.4082 48.9632C64.3228 48.7571 64.3005 48.5303 64.344 48.3116C64.3875 48.0928 64.4949 47.8918 64.6526 47.7341C64.8103 47.5764 65.0113 47.469 65.2301 47.4255C65.4488 47.382 65.6756 47.4043 65.8817 47.4897C66.0877 47.575 66.2639 47.7196 66.3878 47.905C66.5117 48.0905 66.5779 48.3085 66.5779 48.5316C66.5779 48.8307 66.459 49.1175 66.2475 49.329C66.036 49.5405 65.7492 49.6594 65.4501 49.6594Z" fill="#1E81CE"/>
</svg>
