<svg width="70" height="70" viewBox="0 0 70 70" fill="none" xmlns="http://www.w3.org/2000/svg">
<path d="M12.8334 45.5L13.7901 46.4567L11.6667 53.6667H1.16675V51.2167C1.16708 49.8636 1.55955 48.5396 2.29666 47.405C3.03378 46.2703 4.08395 45.3736 5.32008 44.8234L8.51675 43.4L9.33341 46.6667L12.8334 45.5Z" fill="#BDDBFF"/>
<path d="M29.1668 51.2167V53.6667H18.6668L16.5435 46.4567L17.5001 45.5L21.0001 46.6667L21.8168 43.4L25.0135 44.8234C26.2496 45.3736 27.2998 46.2703 28.0369 47.405C28.774 48.5396 29.1665 49.8636 29.1668 51.2167Z" fill="#BDDBFF"/>
<path d="M21.8166 43.4L20.9999 46.6667L17.4999 45.5L16.3333 43.1667L18.6666 42L21.8166 43.4Z" fill="#BDDBFF"/>
<path d="M13.9999 43.1667L12.8333 45.5L9.33327 46.6667L8.5166 43.4L11.6666 42L13.9999 43.1667Z" fill="#BDDBFF"/>
<path d="M16.5434 46.4565L18.6667 53.6665H11.6667L13.7901 46.4565L15.1667 47.8332L16.5434 46.4565Z" fill="#BDDBFF"/>
<path d="M17.4999 45.5L16.5433 46.4566L15.1666 47.8333L13.7899 46.4566L12.8333 45.5L13.9999 43.1666H16.3333L17.4999 45.5Z" fill="#BDDBFF"/>
<path d="M23.3333 24.5V26.8334H22.5633C21.784 26.8306 21.0276 26.569 20.4131 26.0896C19.7986 25.6102 19.3607 24.9403 19.1683 24.185L18.6667 22.1667C18.6667 23.4044 18.175 24.5914 17.2998 25.4665C16.4247 26.3417 15.2377 26.8334 14 26.8334H7V24.5C7 22.3341 7.86041 20.2569 9.39196 18.7253C10.9235 17.1938 13.0007 16.3334 15.1667 16.3334C17.3326 16.3334 19.4098 17.1938 20.9414 18.7253C22.4729 20.2569 23.3333 22.3341 23.3333 24.5Z" fill="#BDDBFF"/>
<path d="M64.1667 50.1666L68.8333 54.8333H64.1667C63.8572 54.8333 63.5605 54.7104 63.3417 54.4916C63.1229 54.2728 63 53.976 63 53.6666V50.1666H64.1667Z" fill="#BDDBFF"/>
<path d="M64.1667 25.6666L68.8333 30.3333H64.1667C63.8572 30.3333 63.5605 30.2104 63.3417 29.9916C63.1229 29.7728 63 29.476 63 29.1666V25.6666H64.1667Z" fill="#BDDBFF"/>
<path d="M64.1667 1.16663L68.8333 5.83329H64.1667C63.8572 5.83329 63.5605 5.71038 63.3417 5.49158C63.1229 5.27279 63 4.97605 63 4.66663V1.16663H64.1667Z" fill="#BDDBFF"/>
<path d="M10.5 29.1666H12.8333V31.5H10.5V29.1666Z" fill="#3D9AE2"/>
<path d="M17.5 29.1666H19.8333V31.5H17.5V29.1666Z" fill="#3D9AE2"/>
<path d="M25.487 43.757L19.8333 41.2428V39.571C20.9031 38.9501 21.8393 38.1234 22.5876 37.1386C23.336 36.1537 23.8817 35.0303 24.1932 33.8333H24.5C25.4283 33.8333 26.3185 33.4645 26.9749 32.8082C27.6313 32.1518 28 31.2616 28 30.3333C28 29.405 27.6313 28.5148 26.9749 27.8584C26.3185 27.202 25.4283 26.8333 24.5 26.8333V24.5C24.5 22.0246 23.5167 19.6506 21.7663 17.9003C20.016 16.15 17.642 15.1666 15.1667 15.1666C12.6913 15.1666 10.3173 16.15 8.567 17.9003C6.81666 19.6506 5.83333 22.0246 5.83333 24.5V26.8333C4.90508 26.8333 4.01484 27.202 3.35846 27.8584C2.70208 28.5148 2.33333 29.405 2.33333 30.3333C2.33333 31.2616 2.70208 32.1518 3.35846 32.8082C4.01484 33.4645 4.90508 33.8333 5.83333 33.8333H6.14017C6.45168 35.0303 6.99738 36.1537 7.74572 37.1386C8.49406 38.1234 9.43019 38.9501 10.5 39.571V41.2428L4.84633 43.757C3.40391 44.3989 2.17847 45.4451 1.31835 46.769C0.458227 48.093 0.000300658 49.6378 0 51.2166V53.6666C0 53.976 0.122916 54.2728 0.341709 54.4916C0.560501 54.7104 0.857247 54.8333 1.16667 54.8333H29.1667C29.4761 54.8333 29.7728 54.7104 29.9916 54.4916C30.2104 54.2728 30.3333 53.976 30.3333 53.6666V51.2166C30.333 49.6378 29.8751 48.093 29.015 46.769C28.1549 45.4451 26.9294 44.3989 25.487 43.757ZM20.447 44.0696L20.174 45.1616L18.3283 44.5468L17.899 43.6881L18.6958 43.2903L20.447 44.0696ZM16.0802 45.2666L15.1667 46.1836L14.2532 45.2701L14.7198 44.3368H15.6112L16.0802 45.2666ZM14.3558 48.664C14.5719 48.877 14.8632 48.9964 15.1667 48.9964C15.4701 48.9964 15.7614 48.877 15.9775 48.664L17.1068 52.5H13.2265L14.3558 48.664ZM25.6667 30.3333C25.6667 30.6427 25.5438 30.9395 25.325 31.1583C25.1062 31.377 24.8094 31.5 24.5 31.5V29.1666C24.8094 29.1666 25.1062 29.2895 25.325 29.5083C25.5438 29.7271 25.6667 30.0239 25.6667 30.3333ZM15.1667 17.5C17.0226 17.5018 18.802 18.2399 20.1144 19.5523C21.4267 20.8646 22.1648 22.644 22.1667 24.5V25.6316C21.7211 25.5547 21.3075 25.3501 20.9761 25.0425C20.6447 24.7349 20.4098 24.3377 20.3 23.8991L19.796 21.8843C19.725 21.6103 19.5569 21.3715 19.3229 21.2123C19.089 21.0531 18.8051 20.9844 18.5242 21.0189C18.2434 21.0535 17.9846 21.1889 17.7962 21.4001C17.6078 21.6112 17.5025 21.8836 17.5 22.1666C17.5 23.0949 17.1313 23.9851 16.4749 24.6415C15.8185 25.2979 14.9283 25.6666 14 25.6666H8.16667V24.5C8.16852 22.644 8.90661 20.8646 10.219 19.5523C11.5313 18.2399 13.3107 17.5018 15.1667 17.5ZM4.66667 30.3333C4.66667 30.0239 4.78958 29.7271 5.00838 29.5083C5.22717 29.2895 5.52391 29.1666 5.83333 29.1666V31.5C5.52391 31.5 5.22717 31.377 5.00838 31.1583C4.78958 30.9395 4.66667 30.6427 4.66667 30.3333ZM8.16667 31.5V28H14C14.8832 27.9997 15.7547 27.7988 16.549 27.4126C17.3432 27.0264 18.0394 26.4649 18.585 25.7705C18.9672 26.3931 19.4906 26.917 20.1128 27.2999C20.735 27.6827 21.4386 27.9138 22.1667 27.9743V31.5C22.1667 33.3565 21.4292 35.137 20.1164 36.4497C18.8037 37.7625 17.0232 38.5 15.1667 38.5C13.3102 38.5 11.5297 37.7625 10.2169 36.4497C8.90417 35.137 8.16667 33.3565 8.16667 31.5ZM15.1667 40.8333C15.9543 40.8305 16.7384 40.7274 17.5 40.5265V41.279L16.058 42H14.2753L12.8333 41.279V40.5265C13.5949 40.7274 14.379 40.8305 15.1667 40.8333ZM11.6375 43.2903L12.4343 43.6881L12.005 44.5468L10.1593 45.1616L9.88633 44.0696L11.6375 43.2903ZM2.33333 51.2166C2.33369 50.0893 2.6607 48.9862 3.27482 48.0408C3.88893 47.0954 4.76382 46.3482 5.79367 45.8896L7.72217 45.0333L8.20167 46.9501C8.26487 47.2024 8.41056 47.4264 8.61559 47.5864C8.82063 47.7464 9.07325 47.8333 9.33333 47.8333C9.45871 47.8334 9.58325 47.8129 9.702 47.7726L12.4565 46.8545L10.794 52.5H2.33333V51.2166ZM28 52.5H19.5393L17.8768 46.8545L20.6313 47.7726C20.7501 47.8129 20.8746 47.8334 21 47.8333C21.2602 47.8332 21.513 47.7461 21.718 47.5859C21.9231 47.4257 22.0687 47.2015 22.1317 46.949L22.6112 45.0321L24.5397 45.8896C25.5695 46.3482 26.4444 47.0954 27.0585 48.0408C27.6726 48.9862 27.9996 50.0893 28 51.2166V52.5Z" fill="#1E81CE"/>
<path d="M64.9914 24.8418C64.7727 24.623 64.476 24.5001 64.1666 24.5H53.6666C53.0477 24.5 52.4543 24.7458 52.0167 25.1834C51.5791 25.621 51.3333 26.2145 51.3333 26.8333V43.1667C51.3333 43.7855 51.5791 44.379 52.0167 44.8166C52.4543 45.2542 53.0477 45.5 53.6666 45.5H67.6666C68.2854 45.5 68.8789 45.2542 69.3165 44.8166C69.7541 44.379 69.9999 43.7855 69.9999 43.1667V30.3333C69.9998 30.0239 69.8769 29.7272 69.6581 29.5085L64.9914 24.8418ZM66.0169 29.1667H64.1666V27.3163L66.0169 29.1667ZM53.6666 43.1667V26.8333H61.8333V29.1667C61.8333 29.7855 62.0791 30.379 62.5167 30.8166C62.9543 31.2542 63.5477 31.5 64.1666 31.5H67.6666V43.1667H53.6666Z" fill="#1E81CE"/>
<path d="M56 33.8334H65.3333V36.1667H56V33.8334Z" fill="#1E81CE"/>
<path d="M56 38.5H65.3333V40.8333H56V38.5Z" fill="#1E81CE"/>
<path d="M56 29.1666H58.3333V31.5H56V29.1666Z" fill="#1E81CE"/>
<path d="M69.6581 5.0085L64.9914 0.341833C64.7727 0.123026 64.476 6.6077e-05 64.1666 0H53.6666C53.0477 0 52.4543 0.245833 52.0167 0.683417C51.5791 1.121 51.3333 1.71449 51.3333 2.33333V18.6667C51.3333 19.2855 51.5791 19.879 52.0167 20.3166C52.4543 20.7542 53.0477 21 53.6666 21H67.6666C68.2854 21 68.8789 20.7542 69.3165 20.3166C69.7541 19.879 69.9999 19.2855 69.9999 18.6667V5.83333C69.9998 5.52394 69.8769 5.22724 69.6581 5.0085ZM66.0169 4.66667H64.1666V2.81633L66.0169 4.66667ZM53.6666 18.6667V2.33333H61.8333V4.66667C61.8333 5.2855 62.0791 5.879 62.5167 6.31658C62.9543 6.75417 63.5477 7 64.1666 7H67.6666V18.6667H53.6666Z" fill="#1E81CE"/>
<path d="M56 9.33337H65.3333V11.6667H56V9.33337Z" fill="#1E81CE"/>
<path d="M56 14H65.3333V16.3333H56V14Z" fill="#1E81CE"/>
<path d="M56 4.66663H58.3333V6.99996H56V4.66663Z" fill="#1E81CE"/>
<path d="M64.9914 49.3418C64.7727 49.123 64.476 49.0001 64.1666 49H53.6666C53.0477 49 52.4543 49.2458 52.0167 49.6834C51.5791 50.121 51.3333 50.7145 51.3333 51.3333V67.6667C51.3333 68.2855 51.5791 68.879 52.0167 69.3166C52.4543 69.7542 53.0477 70 53.6666 70H67.6666C68.2854 70 68.8789 69.7542 69.3165 69.3166C69.7541 68.879 69.9999 68.2855 69.9999 67.6667V54.8333C69.9998 54.5239 69.8769 54.2272 69.6581 54.0085L64.9914 49.3418ZM66.0169 53.6667H64.1666V51.8163L66.0169 53.6667ZM53.6666 67.6667V51.3333H61.8333V53.6667C61.8333 54.2855 62.0791 54.879 62.5167 55.3166C62.9543 55.7542 63.5477 56 64.1666 56H67.6666V67.6667H53.6666Z" fill="#1E81CE"/>
<path d="M56 58.3334H65.3333V60.6667H56V58.3334Z" fill="#1E81CE"/>
<path d="M56 63H65.3333V65.3333H56V63Z" fill="#1E81CE"/>
<path d="M56 53.6666H58.3333V56H56V53.6666Z" fill="#1E81CE"/>
<path d="M38.5001 12.8334V33.8334H32.6667V36.1667H38.5001V57.1667C38.5001 58.095 38.8688 58.9852 39.5252 59.6416C40.1816 60.298 41.0718 60.6667 42.0001 60.6667H49.0001V58.3334H42.0001C41.6907 58.3334 41.3939 58.2105 41.1751 57.9917C40.9563 57.7729 40.8334 57.4761 40.8334 57.1667V36.1667H49.0001V33.8334H40.8334V12.8334C40.8334 12.524 40.9563 12.2272 41.1751 12.0084C41.3939 11.7896 41.6907 11.6667 42.0001 11.6667H49.0001V9.33337H42.0001C41.0718 9.33337 40.1816 9.70212 39.5252 10.3585C38.8688 11.0149 38.5001 11.9051 38.5001 12.8334Z" fill="#1E81CE"/>
</svg>
