<svg width="70" height="70" viewBox="0 0 70 70" fill="none" xmlns="http://www.w3.org/2000/svg">
<path d="M49.6781 19.6875C49.3749 18.6801 48.9718 17.7055 48.475 16.7781L52.7844 12.4578L46.6047 6.27812L42.2844 10.5875C41.357 10.0907 40.3824 9.68765 39.375 9.38438V3.28125H30.625V9.38438C29.6176 9.68765 28.643 10.0907 27.7156 10.5875L23.3953 6.27812L17.2156 12.4578L21.525 16.7781C21.0282 17.7055 20.6251 18.6801 20.3219 19.6875H14.2188V27.3438H26.8953C26.4686 26.3025 26.2494 25.1878 26.25 24.0625C26.25 21.7419 27.1719 19.5163 28.8128 17.8753C30.4538 16.2344 32.6794 15.3125 35 15.3125C37.3206 15.3125 39.5462 16.2344 41.1872 17.8753C42.8281 19.5163 43.75 21.7419 43.75 24.0625C43.7506 25.1878 43.5314 26.3025 43.1047 27.3438H55.7812V19.6875H49.6781Z" fill="#9BC9FF"/>
<path d="M57.3616 38.2812H64.5311C65.1113 38.2812 65.6677 38.0508 66.0779 37.6405C66.4881 37.2303 66.7186 36.6739 66.7186 36.0938C66.7186 35.5136 66.4881 34.9572 66.0779 34.547C65.6677 34.1367 65.1113 33.9062 64.5311 33.9062H57.3616C57.7588 34.5668 57.9686 35.323 57.9686 36.0938C57.9686 36.8645 57.7588 37.6207 57.3616 38.2812Z" fill="#9BC9FF"/>
<path d="M5.46875 38.2812H49.8258C49.4286 37.6207 49.2187 36.8645 49.2187 36.0938C49.2187 35.323 49.4286 34.5668 49.8258 33.9062H5.46875C4.88859 33.9062 4.33219 34.1367 3.92195 34.547C3.51172 34.9572 3.28125 35.5136 3.28125 36.0938C3.28125 36.6739 3.51172 37.2303 3.92195 37.6405C4.33219 38.0508 4.88859 38.2812 5.46875 38.2812Z" fill="white"/>
<path d="M19.2008 47.0312H5.46875C4.88859 47.0312 4.33219 47.2617 3.92195 47.672C3.51172 48.0822 3.28125 48.6386 3.28125 49.2188C3.28125 49.7989 3.51172 50.3553 3.92195 50.7655C4.33219 51.1758 4.88859 51.4062 5.46875 51.4062H19.2008C18.8036 50.7457 18.5937 49.9895 18.5937 49.2188C18.5937 48.448 18.8036 47.6918 19.2008 47.0312Z" fill="white"/>
<path d="M64.5311 47.0312H26.7366C27.1338 47.6918 27.3436 48.448 27.3436 49.2188C27.3436 49.9895 27.1338 50.7457 26.7366 51.4062H64.5311C65.1113 51.4062 65.6677 51.1758 66.0779 50.7655C66.4881 50.3553 66.7186 49.7989 66.7186 49.2188C66.7186 48.6386 66.4881 48.0822 66.0779 47.672C65.6677 47.2617 65.1113 47.0312 64.5311 47.0312Z" fill="#9BC9FF"/>
<path d="M37.7945 60.1562H5.46875C4.88859 60.1562 4.33219 60.3867 3.92195 60.797C3.51172 61.2072 3.28125 61.7636 3.28125 62.3438C3.28125 62.9239 3.51172 63.4803 3.92195 63.8905C4.33219 64.3008 4.88859 64.5312 5.46875 64.5312H37.7945C37.3973 63.8707 37.1875 63.1145 37.1875 62.3438C37.1875 61.573 37.3973 60.8168 37.7945 60.1562Z" fill="white"/>
<path d="M64.5311 60.1562H45.3303C45.7275 60.8168 45.9374 61.573 45.9374 62.3438C45.9374 63.1145 45.7275 63.8707 45.3303 64.5312H64.5311C65.1113 64.5312 65.6677 64.3008 66.0779 63.8905C66.4881 63.4803 66.7186 62.9239 66.7186 62.3438C66.7186 61.7636 66.4881 61.2072 66.0779 60.797C65.6677 60.3867 65.1113 60.1562 64.5311 60.1562Z" fill="#9BC9FF"/>
<path d="M33.9062 6.5625H36.0938V8.75H33.9062V6.5625Z" fill="#1E81CE"/>
<path d="M56.875 26.25V19.6875C56.875 19.3974 56.7598 19.1192 56.5546 18.9141C56.3495 18.709 56.0713 18.5938 55.7812 18.5938H50.47C50.2771 18.0485 50.0558 17.5136 49.8072 16.9914L53.5588 13.23C53.7635 13.0249 53.8784 12.747 53.8784 12.4573C53.8784 12.1675 53.7635 11.8896 53.5588 11.6845L47.3791 5.50484C47.174 5.30013 46.8961 5.18515 46.6063 5.18515C46.3166 5.18515 46.0387 5.30013 45.8336 5.50484L42.0722 9.25641C41.5496 9.00734 41.0144 8.78574 40.4688 8.5925V3.28125C40.4688 2.99117 40.3535 2.71297 40.1484 2.50785C39.9433 2.30273 39.6651 2.1875 39.375 2.1875H30.625C30.3349 2.1875 30.0567 2.30273 29.8516 2.50785C29.6465 2.71297 29.5312 2.99117 29.5312 3.28125V8.5925C28.986 8.78541 28.4511 9.00665 27.9289 9.25531L24.1719 5.50375C23.9668 5.29904 23.6889 5.18406 23.3991 5.18406C23.1094 5.18406 22.8315 5.29904 22.6264 5.50375L16.4467 11.6834C16.242 11.8885 16.127 12.1664 16.127 12.4562C16.127 12.7459 16.242 13.0238 16.4467 13.2289L20.1983 16.9903C19.9477 17.5128 19.7247 18.048 19.53 18.5938H14.2188C13.9287 18.5938 13.6505 18.709 13.4454 18.9141C13.2402 19.1192 13.125 19.3974 13.125 19.6875V26.25H2.1875V28.4375H67.8125V26.25H56.875ZM15.3125 20.7812H20.3219C20.557 20.7813 20.786 20.7056 20.9747 20.5654C21.1635 20.4251 21.302 20.2277 21.3697 20.0025C21.652 19.0648 22.0272 18.1576 22.4897 17.2944C22.6003 17.0876 22.6415 16.8507 22.6072 16.6187C22.573 16.3868 22.465 16.1719 22.2994 16.0059L18.7622 12.4589L23.3964 7.82469L26.9434 11.3619C27.1094 11.5275 27.3243 11.6354 27.5562 11.6697C27.7882 11.704 28.0251 11.6628 28.2319 11.5522C29.0951 11.0897 30.0023 10.7145 30.94 10.4322C31.1652 10.3645 31.3626 10.226 31.5029 10.0372C31.6431 9.84847 31.7188 9.61954 31.7188 9.38438V4.375H38.2812V9.38438C38.2812 9.61954 38.3569 9.84847 38.4972 10.0372C38.6374 10.226 38.8348 10.3645 39.06 10.4322C39.9977 10.7145 40.9049 11.0897 41.7681 11.5522C41.9749 11.6628 42.2118 11.704 42.4438 11.6697C42.6757 11.6354 42.8906 11.5275 43.0566 11.3619L46.6036 7.82469L51.2378 12.4589L47.7006 16.0059C47.535 16.1719 47.4271 16.3868 47.3928 16.6187C47.3585 16.8507 47.3997 17.0876 47.5103 17.2944C47.9728 18.1576 48.348 19.0648 48.6303 20.0025C48.698 20.2277 48.8365 20.4251 49.0253 20.5654C49.214 20.7056 49.443 20.7813 49.6781 20.7812H54.6875V26.25H44.5856C44.7544 25.533 44.841 24.7991 44.8438 24.0625C44.8438 21.4518 43.8066 18.948 41.9606 17.1019C40.1145 15.2559 37.6107 14.2188 35 14.2188C32.3893 14.2188 29.8855 15.2559 28.0394 17.1019C26.1934 18.948 25.1562 21.4518 25.1562 24.0625C25.159 24.7991 25.2456 25.533 25.4144 26.25H15.3125V20.7812ZM27.3438 24.0625C27.3438 22.0319 28.1504 20.0845 29.5862 18.6487C31.022 17.2129 32.9694 16.4062 35 16.4062C37.0306 16.4062 38.978 17.2129 40.4138 18.6487C41.8496 20.0845 42.6562 22.0319 42.6562 24.0625C42.655 24.8038 42.5444 25.5409 42.3281 26.25H27.6719C27.4556 25.5409 27.345 24.8038 27.3438 24.0625Z" fill="#1E81CE"/>
<path d="M64.5312 32.8126H57.9403C57.4369 32.134 56.7815 31.5826 56.0268 31.2027C55.272 30.8229 54.4387 30.625 53.5938 30.625C52.7488 30.625 51.9155 30.8229 51.1607 31.2027C50.406 31.5826 49.7506 32.134 49.2472 32.8126H5.46875C4.59984 32.8169 3.76774 33.164 3.15332 33.7784C2.5389 34.3929 2.19181 35.225 2.1875 36.0939C2.1875 36.9641 2.5332 37.7987 3.14856 38.4141C3.76391 39.0294 4.59851 39.3751 5.46875 39.3751H49.2472C49.7506 40.0538 50.406 40.6051 51.1607 40.985C51.9155 41.3649 52.7488 41.5628 53.5938 41.5628C54.4387 41.5628 55.272 41.3649 56.0268 40.985C56.7815 40.6051 57.4369 40.0538 57.9403 39.3751H64.5312C65.4002 39.3708 66.2323 39.0237 66.8467 38.4093C67.4611 37.7949 67.8082 36.9628 67.8125 36.0939C67.8125 35.2236 67.4668 34.389 66.8514 33.7737C66.2361 33.1583 65.4015 32.8126 64.5312 32.8126ZM5.46875 37.1876C5.17867 37.1876 4.90047 37.0724 4.69535 36.8673C4.49023 36.6622 4.375 36.384 4.375 36.0939C4.37453 35.9481 4.40399 35.8037 4.46156 35.6698C4.51913 35.5358 4.60358 35.4151 4.70969 35.3151C4.80841 35.2141 4.92656 35.1341 5.05701 35.08C5.18746 35.0259 5.32752 34.9987 5.46875 35.0001H48.2344C48.0871 35.7219 48.0871 36.4659 48.2344 37.1876H5.46875ZM53.5938 39.3751C52.9448 39.3751 52.3104 39.1827 51.7708 38.8221C51.2312 38.4616 50.8106 37.9491 50.5623 37.3496C50.3139 36.75 50.2489 36.0902 50.3755 35.4537C50.5022 34.8172 50.8147 34.2326 51.2736 33.7737C51.7324 33.3148 52.3171 33.0023 52.9536 32.8757C53.5901 32.7491 54.2499 32.814 54.8494 33.0624C55.449 33.3107 55.9615 33.7313 56.322 34.2709C56.6826 34.8105 56.875 35.4449 56.875 36.0939C56.875 36.9641 56.5293 37.7987 55.9139 38.4141C55.2986 39.0294 54.464 39.3751 53.5938 39.3751ZM65.2903 36.8726C65.1916 36.9736 65.0734 37.0536 64.943 37.1077C64.8125 37.1619 64.6725 37.189 64.5312 37.1876H58.9531C59.1004 36.4659 59.1004 35.7219 58.9531 35.0001H64.5312C64.8213 35.0001 65.0995 35.1154 65.3046 35.3205C65.5098 35.5256 65.625 35.8038 65.625 36.0939C65.6255 36.2397 65.596 36.384 65.5384 36.518C65.4809 36.6519 65.3964 36.7726 65.2903 36.8726Z" fill="#1E81CE"/>
<path d="M64.5312 45.9375H27.3153C26.8119 45.2588 26.1565 44.7075 25.4018 44.3276C24.647 43.9477 23.8137 43.7499 22.9688 43.7499C22.1238 43.7499 21.2905 43.9477 20.5357 44.3276C19.781 44.7075 19.1256 45.2588 18.6222 45.9375H5.46875C4.59984 45.9418 3.76774 46.2889 3.15332 46.9033C2.5389 47.5177 2.19181 48.3498 2.1875 49.2188C2.1875 50.089 2.5332 50.9236 3.14856 51.5389C3.76391 52.1543 4.59851 52.5 5.46875 52.5H18.6222C19.1256 53.1787 19.781 53.73 20.5357 54.1099C21.2905 54.4898 22.1238 54.6876 22.9688 54.6876C23.8137 54.6876 24.647 54.4898 25.4018 54.1099C26.1565 53.73 26.8119 53.1787 27.3153 52.5H64.5312C65.4002 52.4957 66.2323 52.1486 66.8467 51.5342C67.4611 50.9198 67.8082 50.0877 67.8125 49.2188C67.8125 48.3485 67.4668 47.5139 66.8514 46.8986C66.2361 46.2832 65.4015 45.9375 64.5312 45.9375ZM5.46875 50.3125C5.17867 50.3125 4.90047 50.1973 4.69535 49.9922C4.49023 49.787 4.375 49.5088 4.375 49.2188C4.37453 49.073 4.40399 48.9286 4.46156 48.7947C4.51913 48.6607 4.60358 48.54 4.70969 48.44C4.80841 48.339 4.92656 48.259 5.05701 48.2049C5.18746 48.1508 5.32752 48.1236 5.46875 48.125H17.6094C17.4621 48.8467 17.4621 49.5908 17.6094 50.3125H5.46875ZM22.9688 52.5C22.3198 52.5 21.6854 52.3076 21.1458 51.947C20.6062 51.5865 20.1856 51.074 19.9373 50.4744C19.6889 49.8749 19.6239 49.2151 19.7505 48.5786C19.8772 47.9421 20.1897 47.3575 20.6486 46.8986C21.1074 46.4397 21.6921 46.1272 22.3286 46.0006C22.9651 45.8739 23.6249 45.9389 24.2244 46.1873C24.824 46.4356 25.3365 46.8562 25.697 47.3958C26.0576 47.9354 26.25 48.5698 26.25 49.2188C26.25 50.089 25.9043 50.9236 25.2889 51.5389C24.6736 52.1543 23.839 52.5 22.9688 52.5ZM65.2903 49.9975C65.1916 50.0985 65.0734 50.1785 64.943 50.2326C64.8125 50.2868 64.6725 50.3139 64.5312 50.3125H28.3281C28.4754 49.5908 28.4754 48.8467 28.3281 48.125H64.5312C64.8213 48.125 65.0995 48.2402 65.3046 48.4454C65.5098 48.6505 65.625 48.9287 65.625 49.2188C65.6255 49.3646 65.596 49.5089 65.5384 49.6428C65.4809 49.7768 65.3964 49.8975 65.2903 49.9975Z" fill="#1E81CE"/>
<path d="M64.5312 59.0625H45.9091C45.4056 58.3838 44.7503 57.8325 43.9955 57.4526C43.2407 57.0727 42.4075 56.8749 41.5625 56.8749C40.7175 56.8749 39.8843 57.0727 39.1295 57.4526C38.3747 57.8325 37.7194 58.3838 37.2159 59.0625H5.46875C4.59984 59.0668 3.76774 59.4139 3.15332 60.0283C2.5389 60.6427 2.19181 61.4748 2.1875 62.3438C2.1875 63.214 2.5332 64.0486 3.14856 64.6639C3.76391 65.2793 4.59851 65.625 5.46875 65.625H37.2159C37.7194 66.3037 38.3747 66.855 39.1295 67.2349C39.8843 67.6148 40.7175 67.8126 41.5625 67.8126C42.4075 67.8126 43.2407 67.6148 43.9955 67.2349C44.7503 66.855 45.4056 66.3037 45.9091 65.625H64.5312C65.4002 65.6207 66.2323 65.2736 66.8467 64.6592C67.4611 64.0448 67.8082 63.2127 67.8125 62.3438C67.8125 61.4735 67.4668 60.6389 66.8514 60.0236C66.2361 59.4082 65.4015 59.0625 64.5312 59.0625ZM5.46875 63.4375C5.17867 63.4375 4.90047 63.3223 4.69535 63.1172C4.49023 62.912 4.375 62.6338 4.375 62.3438C4.37453 62.198 4.40399 62.0536 4.46156 61.9197C4.51913 61.7857 4.60358 61.665 4.70969 61.565C4.80841 61.464 4.92656 61.384 5.05701 61.3299C5.18746 61.2758 5.32752 61.2486 5.46875 61.25H36.2031C36.0558 61.9717 36.0558 62.7158 36.2031 63.4375H5.46875ZM41.5625 65.625C40.9135 65.625 40.2791 65.4326 39.7395 65.072C39.1999 64.7115 38.7794 64.199 38.531 63.5994C38.2827 62.9999 38.2177 62.3401 38.3443 61.7036C38.4709 61.0671 38.7834 60.4825 39.2423 60.0236C39.7012 59.5647 40.2859 59.2522 40.9224 59.1256C41.5589 58.9989 42.2186 59.0639 42.8182 59.3123C43.4177 59.5606 43.9302 59.9812 44.2908 60.5208C44.6513 61.0604 44.8438 61.6948 44.8438 62.3438C44.8438 63.214 44.498 64.0486 43.8827 64.6639C43.2673 65.2793 42.4327 65.625 41.5625 65.625ZM65.2903 63.1225C65.1916 63.2235 65.0734 63.3035 64.943 63.3576C64.8125 63.4118 64.6725 63.4389 64.5312 63.4375H46.9219C47.0692 62.7158 47.0692 61.9717 46.9219 61.25H64.5312C64.8213 61.25 65.0995 61.3652 65.3046 61.5704C65.5098 61.7755 65.625 62.0537 65.625 62.3438C65.6255 62.4896 65.596 62.6339 65.5384 62.7679C65.4809 62.9018 65.3964 63.0225 65.2903 63.1225Z" fill="#1E81CE"/>
<path d="M21.8501 12.4633L23.3969 10.9165L24.9437 12.4633L23.3969 14.0101L21.8501 12.4633Z" fill="#1E81CE"/>
<path d="M17.5 22.9688H19.6875V25.1562H17.5V22.9688Z" fill="#1E81CE"/>
<path d="M50.3125 22.9688H52.5V25.1562H50.3125V22.9688Z" fill="#1E81CE"/>
<path d="M45.0491 12.4648L46.5959 10.918L48.1427 12.4648L46.5959 14.0116L45.0491 12.4648Z" fill="#1E81CE"/>
</svg>
