<svg width="70" height="70" viewBox="0 0 70 70" fill="none" xmlns="http://www.w3.org/2000/svg">
<path d="M35.0001 1.16663C41.6917 1.16663 48.233 3.15092 53.7969 6.86857C59.3607 10.5862 63.6972 15.8703 66.258 22.0525C68.8188 28.2347 69.4888 35.0375 68.1833 41.6005C66.8778 48.1635 63.6555 54.1921 58.9239 58.9237C54.1922 63.6554 48.1637 66.8777 41.6006 68.1832C35.0376 69.4887 28.2349 68.8186 22.0526 66.2579C15.8704 63.6971 10.5863 59.3606 6.86869 53.7968C3.15104 48.2329 1.16675 41.6916 1.16675 35C1.16675 26.0268 4.73132 17.4212 11.0763 11.0762C17.4213 4.7312 26.0269 1.16663 35.0001 1.16663ZM64.1667 35C64.1667 29.2313 62.4562 23.5923 59.2513 18.7958C56.0464 13.9994 51.4912 10.261 46.1617 8.05347C40.8322 5.84592 34.9677 5.26832 29.3099 6.39372C23.6522 7.51912 18.4552 10.297 14.3761 14.376C10.2971 18.455 7.51925 23.652 6.39384 29.3098C5.26844 34.9676 5.84604 40.832 8.05359 46.1616C10.2612 51.4911 13.9995 56.0463 18.7959 59.2512C23.5924 62.456 29.2315 64.1666 35.0001 64.1666C38.8303 64.1666 42.623 63.4122 46.1617 61.9464C49.7003 60.4807 52.9157 58.3323 55.624 55.6239C58.3324 52.9155 60.4808 49.7002 61.9466 46.1616C63.4123 42.6229 64.1667 38.8302 64.1667 35Z" fill="#BDDBFF"/>
<path d="M28 49H42V56H28V49Z" fill="#BDDBFF"/>
<path d="M35.0001 4.66663C29.0007 4.66663 23.1361 6.44564 18.1478 9.77871C13.1595 13.1118 9.27161 17.8492 6.97575 23.3919C4.67989 28.9346 4.07919 35.0336 5.24961 40.9177C6.42003 46.8018 9.309 52.2067 13.5512 56.4489C17.7934 60.6911 23.1983 63.58 29.0824 64.7504C34.9664 65.9209 41.0655 65.3202 46.6082 63.0243C52.1508 60.7284 56.8883 56.8405 60.2213 51.8523C63.5544 46.864 65.3334 40.9993 65.3334 35C65.3242 26.9579 62.1254 19.2479 56.4388 13.5613C50.7522 7.87469 43.0421 4.67589 35.0001 4.66663ZM35.0001 63C29.4622 63 24.0487 61.3578 19.4441 58.2811C14.8396 55.2044 11.2507 50.8314 9.13147 45.7151C7.01221 40.5988 6.45772 34.9689 7.53811 29.5374C8.61849 24.106 11.2852 19.1168 15.2011 15.201C19.117 11.2851 24.1061 8.61836 29.5376 7.53797C34.969 6.45758 40.5989 7.01208 45.7152 9.13133C50.8316 11.2506 55.2046 14.8394 58.2812 19.444C61.3579 24.0486 63.0001 29.4621 63.0001 35C62.9914 42.4234 60.0387 49.5403 54.7895 54.7894C49.5404 60.0385 42.4235 62.9913 35.0001 63Z" fill="#1E81CE"/>
<path d="M59.5 33.8333H57.1072C56.845 28.7728 54.8472 23.9572 51.45 20.1973L53.1463 18.501L51.4967 16.8513L49.8027 18.55C46.0428 15.1528 41.2272 13.155 36.1667 12.8928V10.5H33.8333V12.8928C28.7728 13.155 23.9572 15.1528 20.1973 18.55L18.501 16.8537L16.8513 18.5033L18.55 20.1973C15.1528 23.9572 13.155 28.7728 12.8928 33.8333H10.5V36.1667H12.887C13.1336 41.2343 15.1238 46.061 18.5208 49.8295L16.8513 51.499L18.501 53.1487L20.9732 50.6765C21.1915 50.4578 21.3142 50.1613 21.3142 49.8522C21.3142 49.5432 21.1915 49.2467 20.9732 49.028C19.2056 47.2554 17.7886 45.1651 16.7965 42.8668L18.9537 42.0817L18.1557 39.8883L15.9915 40.6758C14.7488 36.5217 14.9128 32.0735 16.4582 28.0222L18.5383 28.9473L19.488 26.8158L17.4032 25.8883C19.4043 22.0481 22.6016 18.9639 26.5113 17.1022L27.363 19.2115L29.526 18.3377L28.6708 16.2167C32.7734 14.812 37.2266 14.812 41.3292 16.2167L40.474 18.3342L42.637 19.208L43.4887 17.0987C47.3984 18.9604 50.5957 22.0446 52.5968 25.8848L50.512 26.8123L51.4617 28.9438L53.5418 28.0187C55.0872 32.07 55.2512 36.5182 54.0085 40.6723L51.8443 39.8848L51.0463 42.0782L53.2035 42.8633C52.2114 45.1616 50.7944 47.2519 49.0268 49.0245C48.8085 49.2432 48.6858 49.5397 48.6858 49.8487C48.6858 50.1578 48.8085 50.4543 49.0268 50.673L51.499 53.1452L53.1487 51.4955L51.4792 49.826C54.8754 46.0584 56.8656 41.233 57.113 36.1667H59.5V33.8333Z" fill="#1E81CE"/>
<path d="M37.7693 33.026C37.7693 32.0978 37.4006 31.2076 36.7442 30.5512C36.0878 29.8948 35.1976 29.526 34.2693 29.526C33.7496 29.5281 33.2371 29.6477 32.7702 29.876L30.4275 27.5334L28.7778 29.183L31.1193 31.5269C30.891 31.9938 30.7713 32.5063 30.7693 33.026C30.7693 33.9543 31.1381 34.8445 31.7945 35.5009C32.4508 36.1573 33.3411 36.526 34.2693 36.526C34.7891 36.524 35.3016 36.4044 35.7685 36.176L43.9445 44.3521L45.5942 42.7024L37.4193 34.5252C37.6477 34.0583 37.7673 33.5458 37.7693 33.026Z" fill="#1E81CE"/>
<path d="M41.9999 47.8334H27.9999C27.6905 47.8334 27.3938 47.9563 27.175 48.1751C26.9562 48.3939 26.8333 48.6906 26.8333 49V56C26.8333 56.3095 26.9562 56.6062 27.175 56.825C27.3938 57.0438 27.6905 57.1667 27.9999 57.1667H41.9999C42.3093 57.1667 42.6061 57.0438 42.8249 56.825C43.0437 56.6062 43.1666 56.3095 43.1666 56V49C43.1666 48.6906 43.0437 48.3939 42.8249 48.1751C42.6061 47.9563 42.3093 47.8334 41.9999 47.8334ZM40.8333 54.8334H29.1666V50.1667H40.8333V54.8334Z" fill="#1E81CE"/>
<path d="M35 0C28.0777 0 21.3108 2.05271 15.5551 5.89856C9.79934 9.74441 5.3133 15.2107 2.66423 21.6061C0.0151653 28.0015 -0.677952 35.0388 0.672531 41.8282C2.02301 48.6175 5.35644 54.8539 10.2513 59.7487C15.1461 64.6436 21.3825 67.977 28.1719 69.3275C34.9612 70.678 41.9985 69.9849 48.3939 67.3358C54.7893 64.6867 60.2556 60.2007 64.1014 54.445C67.9473 48.6892 70 41.9223 70 35C69.9895 25.7206 66.2987 16.8244 59.7372 10.2629C53.1757 3.70136 44.2794 0.0104988 35 0ZM35 67.6667C28.5392 67.6667 22.2234 65.7508 16.8514 62.1613C11.4794 58.5719 7.29241 53.4701 4.81995 47.501C2.34749 41.5319 1.70058 34.9638 2.96103 28.6271C4.22148 22.2903 7.33268 16.4697 11.9012 11.9012C16.4697 7.33266 22.2904 4.22146 28.6271 2.96101C34.9638 1.70056 41.532 2.34747 47.501 4.81994C53.4701 7.2924 58.5719 11.4794 62.1614 16.8514C65.7508 22.2234 67.6667 28.5391 67.6667 35C67.6568 43.6607 64.212 51.9639 58.0879 58.0879C51.9639 64.212 43.6607 67.6568 35 67.6667Z" fill="#1E81CE"/>
</svg>
