<svg width="90" height="90" viewBox="0 0 90 90" fill="none" xmlns="http://www.w3.org/2000/svg">
<path d="M64.5001 37.5H13.5C10.1865 37.5 7.5 40.1865 7.5 43.5V82.4999H70.5V43.4999C70.5 40.1864 67.8136 37.5 64.5001 37.5Z" fill="#308BEB"/>
<path d="M64.5 43.5H13.5V82.5H64.5V43.5Z" fill="white"/>
<path d="M18 82.5001H64.5001V43.5H57L18 82.5001Z" fill="white"/>
<path d="M21 55.5H18V51C18 49.3425 19.3425 48 21 48H25.5V51H21V55.5Z" fill="#A7E1EB"/>
<path d="M31.5 72H28.5V75H31.5V72Z" fill="#5EB3D1"/>
<path d="M49.4998 72H46.4998V75H49.4998V72Z" fill="#5EB3D1"/>
<path d="M43.5 72H40.5V75H43.5V72Z" fill="#5EB3D1"/>
<path d="M37.5 72H34.5V75H37.5V72Z" fill="#5EB3D1"/>
<path d="M88.4999 1.5H31.5V13.4999H88.4999V1.5Z" fill="white"/>
<path d="M88.4999 19.5H31.5V31.4999H88.4999V19.5Z" fill="white"/>
<path d="M75 49.4999H88.4999V37.5H75" fill="white"/>
<path d="M75 67.4999H88.4999V55.5H75" fill="white"/>
<path d="M43.5 13.5H37.5V19.5H43.5V13.5Z" fill="white"/>
<path d="M82.5 13.5H76.5V19.5H82.5V13.5Z" fill="white"/>
<path d="M82.5 31.5H76.5V37.5H82.5V31.5Z" fill="white"/>
<path d="M82.5 49.5H76.5V55.5H82.5V49.5Z" fill="white"/>
<path d="M82.5 67.5H76.5V73.5H82.5V67.5Z" fill="white"/>
<path d="M84 6H81V9.00002H84V6Z" fill="#88B337"/>
<path d="M78 6H75V9.00002H78V6Z" fill="#88B337"/>
<path d="M72 6H69V9.00002H72V6Z" fill="#88B337"/>
<path d="M39 6H36V9.00002H39V6Z" fill="#88B337"/>
<path d="M84 24H81V27H84V24Z" fill="#88B337"/>
<path d="M78 24H75V27H78V24Z" fill="#88B337"/>
<path d="M72 24H69V27H72V24Z" fill="#88B337"/>
<path d="M39 24H36V27H39V24Z" fill="#88B337"/>
<path d="M84 42H81V45H84V42Z" fill="#88B337"/>
<path d="M78 42H75V45H78V42Z" fill="#88B337"/>
<path d="M84 60H81V63H84V60Z" fill="#88B337"/>
<path d="M78 60H75V63H78V60Z" fill="#88B337"/>
<path d="M71.9999 88.4999H5.99995C3.51453 88.4999 1.5 86.4854 1.5 84V79.5H29.646C30.6735 79.5 31.6139 80.0805 32.073 80.9999C32.532 81.9195 33.4724 82.4999 34.4999 82.4999H43.1459C44.1734 82.4999 45.1138 81.9194 45.5728 80.9999C46.0318 80.0805 46.9723 79.5 47.9998 79.5H76.4997V84C76.4999 86.4855 74.4854 88.4999 71.9999 88.4999Z" fill="#308BEB"/>
<path d="M88.4999 0H31.4999C30.6719 0 30 0.672017 30 1.49993V13.4999C30 14.3279 30.672 14.9998 31.4999 14.9998H35.9999V17.9998H31.4999C30.6719 17.9998 30 18.6718 30 19.4998V31.4997C30 32.3278 30.672 32.9996 31.4999 32.9996H75V38.9997H87V47.9997H75V56.9998H87V65.9998H75V73.4998C75 74.3279 75.672 74.9997 76.5 74.9997H82.5C83.3279 74.9997 83.9999 74.3277 83.9999 73.4998V68.9999H88.4999C89.3278 68.9999 89.9998 68.3278 89.9998 67.4999V55.5C89.9998 54.6719 89.3278 54.0001 88.4999 54.0001H83.9999V51H88.4999C89.3278 51 89.9998 50.328 89.9998 49.5001V37.5002C89.9998 36.6721 89.3278 36.0002 88.4999 36.0002H83.9999V33.0002H88.4999C89.3278 33.0002 89.9998 32.3282 89.9998 31.5003V19.5004C89.9998 18.6723 89.3278 18.0004 88.4999 18.0004H83.9999V14.9999H88.4999C89.3278 14.9999 89.9998 14.3279 89.9998 13.5V1.49993C90 0.672017 89.328 0 88.4999 0ZM80.9999 72H77.9999V69H80.9999V72ZM80.9999 54.0001H77.9999V51H80.9999V54.0001ZM38.9999 14.9999H41.9999V18H38.9999V14.9999ZM75 14.9999V18H45V14.9999H75ZM80.9999 35.9999H77.9999V32.9999H80.9999V35.9999ZM87 30H32.9999V21H87V30ZM80.9999 18H77.9999V14.9999H80.9999V18ZM87 11.9999H32.9999V3.00002H87V11.9999Z" fill="#9BC9FF"/>
<path d="M84 6H81V9.00002H84V6Z" fill="#308BEB"/>
<path d="M78 6H75V9.00002H78V6Z" fill="#308BEB"/>
<path d="M72 6H69V9.00002H72V6Z" fill="#308BEB"/>
<path d="M39 6H36V9.00002H39V6Z" fill="#308BEB"/>
<path d="M84 24H81V27H84V24Z" fill="#308BEB"/>
<path d="M78 24H75V27H78V24Z" fill="#308BEB"/>
<path d="M72 24H69V27H72V24Z" fill="#308BEB"/>
<path d="M39 24H36V27H39V24Z" fill="#308BEB"/>
<path d="M84 42H81V45H84V42Z" fill="#308BEB"/>
<path d="M78 42H75V45H78V42Z" fill="#308BEB"/>
<path d="M84 60H81V63H84V60Z" fill="#308BEB"/>
<path d="M78 60H75V63H78V60Z" fill="#308BEB"/>
<path d="M6.00004 90.0001H72C75.3135 90.0001 78.0001 87.3135 78.0001 84V79.5001C78.0001 78.672 77.3281 78.0001 76.5001 78.0001H72.0002V43.5C71.9956 39.3599 68.6403 36.0044 64.5002 36H13.5C9.35997 36.0046 6.00446 39.3599 6.00004 43.5V78H1.49993C0.671865 78 0 78.672 0 79.4999V83.9999C0 87.3135 2.68654 90.0001 6.00004 90.0001ZM9.00006 43.5C9.00006 41.0145 11.0146 39 13.5 39H64.5001C66.9855 39 69 41.0145 69 43.5V78H66V43.5C66 42.6719 65.328 42 64.5001 42H13.5C12.6719 42 12.0001 42.6721 12.0001 43.5V78H9.00006V43.5ZM63 78H48C46.4025 77.9969 44.9415 78.8999 44.2305 80.3295C44.0281 80.7419 43.6065 81.003 43.1461 81H34.5002C34.0396 81.003 33.6182 80.7435 33.4142 80.3295C32.7047 78.8985 31.2438 77.9956 29.6462 78H14.9999V45.0001H63V78ZM3.00002 81H29.6461C30.1066 80.997 30.528 81.2581 30.7305 81.6705C31.4415 83.0999 32.9025 84.0031 34.5 84H43.1459C44.7435 84.0046 46.2044 83.1015 46.9139 81.6705C47.1179 81.2565 47.5393 80.997 47.9999 81H74.9999V84C74.9999 85.6575 73.6574 87 71.9999 87H6.00004C4.34253 87 3.00002 85.6575 3.00002 84V81Z" fill="#9BC9FF"/>
<path d="M21 51H25.5V48H21C19.3425 48 18 49.3425 18 51V55.5H21V51Z" fill="#308BEB"/>
<path d="M31.5 72H28.5V75H31.5V72Z" fill="#308BEB"/>
<path d="M49.4998 72H46.4998V75H49.4998V72Z" fill="#308BEB"/>
<path d="M43.5 72H40.5V75H43.5V72Z" fill="#308BEB"/>
<path d="M37.5 72H34.5V75H37.5V72Z" fill="#308BEB"/>
</svg>
