<svg width="88" height="88" viewBox="0 0 88 88" fill="none" xmlns="http://www.w3.org/2000/svg">
<path d="M64.5776 56.5918C59.636 65.0032 52.5303 71.9365 44.0001 76.6701C35.47 71.9364 28.3643 65.0032 23.4226 56.5919L64.5776 56.5918Z" fill="#9BC9FF"/>
<path d="M72.125 27.0602V19.2302L44 10.5762L15.875 19.2302V27.0602H72.125Z" fill="#9BC9FF"/>
<path d="M36.9688 20.0293H39.7812V22.8418H36.9688V20.0293Z" fill="#308BEB"/>
<path d="M42.5938 20.0293H45.4062V22.8418H42.5938V20.0293Z" fill="#308BEB"/>
<path d="M48.2188 20.0293H51.0312V22.8418H48.2188V20.0293Z" fill="#308BEB"/>
<path d="M83.375 25.6271H73.5312V19.1937C73.5315 18.8927 73.4351 18.5995 73.2564 18.3573C73.0777 18.115 72.826 17.9365 72.5383 17.8479L44.4133 9.18133C44.1441 9.09752 43.8559 9.09752 43.5867 9.18133L15.4617 17.8479C15.174 17.9365 14.9223 18.115 14.7436 18.3573C14.5649 18.5995 14.4685 18.8927 14.4688 19.1937V28.4441H83.375C83.7481 28.4448 84.1058 28.5934 84.3694 28.8575C84.6331 29.1215 84.7812 29.4794 84.7812 29.8525V53.7938C84.7812 54.1669 84.6331 54.5248 84.3694 54.7888C84.1058 55.0529 83.7481 55.2015 83.375 55.2021H4.625C4.2519 55.2014 3.89433 55.0527 3.63071 54.7887C3.36709 54.5247 3.21894 54.1669 3.21875 53.7938V29.8522C3.21894 29.4791 3.36709 29.1213 3.63071 28.8573C3.89433 28.5933 4.2519 28.4446 4.625 28.4439H11.6562V25.6271H8.84375V15.0325C8.84255 14.7312 8.93841 14.4376 9.11713 14.1951C9.29584 13.9526 9.54791 13.774 9.836 13.686L43.5867 3.28647C43.8561 3.20252 44.1446 3.20252 44.414 3.28647L78.1633 13.686C78.4515 13.774 78.7036 13.9525 78.8825 14.195C79.0613 14.4375 79.1573 14.7311 79.1562 15.0325V22.8106H81.9688V15.0325C81.9725 14.1286 81.6847 13.2476 81.1481 12.5201C80.6115 11.7927 79.8547 11.2577 78.99 10.9944L45.2414 0.594908C44.4332 0.343364 43.5675 0.343364 42.7593 0.594908L9.00927 10.9944C8.14471 11.2579 7.3881 11.793 6.85167 12.5204C6.31523 13.2477 6.02753 14.1287 6.03125 15.0325V25.6271H4.625C3.50565 25.6292 2.43283 26.0752 1.64192 26.8673C0.851012 27.6594 0.406621 28.7329 0.40625 29.8522V53.7938C0.406621 54.9131 0.851017 55.9866 1.64193 56.7787C2.43284 57.5707 3.50566 58.0167 4.625 58.0187H22.6502C27.6913 66.3453 34.8148 73.2149 43.3188 77.9506C43.5273 78.0661 43.7617 78.1266 44 78.1266C44.2383 78.1266 44.4727 78.0661 44.6812 77.9506C53.1855 73.2151 60.3093 66.3455 65.3505 58.0187H71.8755C65.6589 69.6347 55.8917 78.9591 44 84.6306C32.8184 79.3361 23.5013 70.781 17.2744 60.0907L14.8484 61.5141C17.0612 65.2963 19.6527 68.8438 22.5828 72.102H10.25V74.9187H25.2609C27.3199 76.943 29.514 78.8251 31.8281 80.552H10.25V83.3688H35.9141C38.3202 84.8974 40.8245 86.2656 43.4108 87.4645C43.5955 87.5496 43.7965 87.5937 43.9999 87.5937C44.2033 87.5937 44.4042 87.5496 44.5889 87.4645C47.1736 86.2676 49.6753 84.8993 52.0775 83.3688H77.75V80.552H56.15C58.4575 78.8224 60.6468 76.9405 62.7031 74.9187H77.75V72.102H65.3832C69.2126 67.857 72.4598 63.121 75.0389 58.0187H83.375C84.4943 58.0167 85.5672 57.5707 86.3581 56.7787C87.149 55.9866 87.5934 54.9131 87.5938 53.7938V29.8522C87.5934 28.7329 87.149 27.6594 86.3581 26.8673C85.5672 26.0752 84.4943 25.6292 83.375 25.6271ZM70.7188 25.6543H17.2812V20.2683L44 12.0477L70.7188 20.2689V25.6543ZM44 75.0559C36.721 70.8745 30.5354 65.0292 25.9495 57.998H62.0505C57.4651 65.0296 51.2794 70.875 44 75.0557V75.0559Z" fill="#308BEB"/>
<path d="M28.9016 46.421C27.8792 46.7419 26.7787 46.7107 25.7761 46.3324C25.2309 46.0906 24.7224 45.7735 24.2655 45.3902C23.9643 45.1526 23.585 45.0362 23.2023 45.0639C22.8196 45.0915 22.4611 45.2613 22.1972 45.5398C22.0384 45.7132 21.9179 45.9182 21.8437 46.1414C21.7695 46.3645 21.7432 46.6008 21.7665 46.8348C21.7899 47.0688 21.8623 47.2953 21.9791 47.4994C22.0959 47.7035 22.2545 47.8807 22.4444 48.0193C23.1362 48.6336 23.9471 49.099 24.8265 49.3865C26.6494 49.9556 28.6107 49.8954 30.3952 49.2155C31.2591 48.9002 32.0061 48.3286 32.5362 47.5772C33.0663 46.8258 33.3543 45.9304 33.3616 45.0108C33.4423 44.052 33.1726 43.0964 32.6025 42.3213C32.0325 41.5462 31.2007 41.004 30.2613 40.7954C28.6702 40.2712 27.6675 40.2661 26.3756 39.8162C25.6747 39.5727 25.1775 39.1983 25.1775 38.4505C25.1905 38.1612 25.298 37.8842 25.4834 37.6618C25.6687 37.4394 25.9219 37.2838 26.204 37.2188C27.008 36.9372 27.8812 36.922 28.6945 37.1754C29.4149 37.3566 30.0927 37.6777 30.6893 38.1203C30.9219 38.2645 31.1891 38.3436 31.4628 38.3493C31.7364 38.355 32.0066 38.2872 32.2451 38.1528C32.4836 38.0185 32.6817 37.8226 32.8186 37.5855C32.9556 37.3485 33.0264 37.0791 33.0236 36.8053C33.018 36.533 32.9486 36.2658 32.821 36.0252C32.6934 35.7846 32.5111 35.5772 32.2889 35.4197C31.689 34.9291 31.0037 34.5534 30.2674 34.3115C28.4941 33.7054 26.5642 33.7415 24.8148 34.4137C23.972 34.7258 23.247 35.2919 22.74 36.0339C22.233 36.7758 21.9689 37.657 21.9844 38.5555C21.949 39.4555 22.2061 40.3428 22.7174 41.0843C23.2287 41.8258 23.9665 42.3817 24.8203 42.6685C26.4332 43.3175 27.4279 43.1228 28.8097 43.6601C29.5568 43.9541 30.1266 44.3596 30.1266 45.1583C30.128 45.7828 29.4837 46.2054 28.9016 46.421Z" fill="#308BEB"/>
<path d="M45.7129 46.4209C44.6905 46.7418 43.59 46.7106 42.5874 46.3323C42.0422 46.0906 41.5336 45.7734 41.0767 45.3901C40.7752 45.1531 40.3961 45.037 40.0136 45.0647C39.6311 45.0924 39.2727 45.2618 39.0085 45.5398C38.8497 45.7132 38.7292 45.9182 38.655 46.1413C38.5808 46.3645 38.5545 46.6008 38.5778 46.8348C38.6012 47.0688 38.6736 47.2952 38.7904 47.4993C38.9072 47.7034 39.0658 47.8806 39.2557 48.0193C39.9475 48.6334 40.7583 49.0986 41.6376 49.386C43.4602 49.9553 45.4213 49.895 47.2055 49.215C48.0697 48.8999 48.8171 48.3284 49.3477 47.577C49.8783 46.8256 50.1668 45.9301 50.1747 45.0103C50.2546 44.0515 49.9846 43.0963 49.4145 42.3213C48.8444 41.5463 48.0128 41.0041 47.0737 40.7949C45.4695 40.2669 44.4896 40.2693 43.1873 39.8158C42.4864 39.5722 41.9892 39.1979 41.9892 38.45C42.0022 38.1608 42.1097 37.8837 42.2951 37.6613C42.4804 37.4389 42.7336 37.2833 43.0157 37.2183C43.8197 36.9367 44.6929 36.9216 45.5062 37.175C46.2267 37.3564 46.9047 37.6774 47.5017 38.1198C47.7877 38.3209 48.1382 38.4086 48.4852 38.3661C48.8323 38.3236 49.1512 38.1539 49.3803 37.8898C49.5462 37.7194 49.6723 37.5143 49.7494 37.2892C49.8264 37.0642 49.8526 36.8249 49.8259 36.5885C49.7992 36.3522 49.7204 36.1247 49.5952 35.9225C49.4699 35.7203 49.3013 35.5484 49.1015 35.4193C48.5015 34.9288 47.8162 34.5531 47.0801 34.311C45.3065 33.7049 43.3763 33.7411 41.6266 34.4132C40.784 34.7254 40.0591 35.2917 39.5522 36.0337C39.0453 36.7757 38.7814 37.6569 38.797 38.5553C38.7617 39.4553 39.0189 40.3425 39.5302 41.084C40.0415 41.8255 40.7792 42.3814 41.633 42.6683C43.2459 43.3173 44.2406 43.1226 45.6223 43.6599C46.3677 43.9534 46.9393 44.3546 46.9393 45.1581C46.9392 45.7804 46.2965 46.2045 45.7129 46.4209Z" fill="#308BEB"/>
<path d="M58.954 34.5555C58.6347 34.2563 58.2133 34.0901 57.7756 34.0908C57.338 34.0916 56.9171 34.2592 56.5988 34.5596C56.4415 34.7104 56.3172 34.8922 56.2338 35.0935C56.1504 35.2948 56.1096 35.5112 56.1141 35.7291V47.9213C56.11 48.1375 56.1496 48.3524 56.2305 48.553C56.3114 48.7536 56.4319 48.9359 56.5848 49.0888C56.7378 49.2418 56.92 49.3623 57.1206 49.4432C57.3213 49.524 57.5361 49.5636 57.7524 49.5595H64.6079C64.8206 49.5668 65.0326 49.5311 65.2313 49.4547C65.4299 49.3783 65.6112 49.2626 65.7643 49.1147C65.9173 48.9668 66.039 48.7895 66.1221 48.5936C66.2053 48.3976 66.2481 48.1869 66.2481 47.9741C66.2481 47.7612 66.2053 47.5505 66.1221 47.3546C66.039 47.1586 65.9173 46.9814 65.7643 46.8334C65.6112 46.6855 65.4299 46.5699 65.2313 46.4935C65.0326 46.417 64.8206 46.3814 64.6079 46.3886H59.4547V35.7292C59.4588 35.5093 59.4164 35.291 59.3301 35.0887C59.2438 34.8864 59.1156 34.7047 58.954 34.5555Z" fill="#308BEB"/>
</svg>
