<svg width="90" height="90" viewBox="0 0 90 90" fill="none" xmlns="http://www.w3.org/2000/svg">
<g clip-path="url(#clip0)">
<path d="M77.3716 19.362H12.6285C10.6642 19.362 9.07178 17.7696 9.07178 15.8052V4.87512C9.07178 2.91076 10.6642 1.31836 12.6285 1.31836H77.3716C79.3359 1.31836 80.9284 2.91076 80.9284 4.87512V15.8052C80.9284 17.7696 79.3359 19.362 77.3716 19.362Z" fill="#9BC9FF"/>
<path d="M77.3716 43.236H12.6285C10.6642 43.236 9.07178 41.6436 9.07178 39.6792V28.7491C9.07178 26.7848 10.6642 25.1924 12.6285 25.1924H77.3716C79.3359 25.1924 80.9284 26.7848 80.9284 28.7491V39.6792C80.9284 41.6434 79.3359 43.236 77.3716 43.236Z" fill="#9BC9FF"/>
<path d="M77.3716 67.1095H12.6285C10.6642 67.1095 9.07178 65.5171 9.07178 63.5527V52.6227C9.07178 50.6583 10.6642 49.0659 12.6285 49.0659H77.3716C79.3359 49.0659 80.9284 50.6583 80.9284 52.6227V63.5527C80.9284 65.5171 79.3359 67.1095 77.3716 67.1095Z" fill="#9BC9FF"/>
<path d="M77.3715 1.31836H71.4724C72.9924 1.31836 74.2246 2.55059 74.2246 4.07057V16.6097C74.2246 18.1297 72.9924 19.362 71.4724 19.362H77.3715C79.3358 19.362 80.9282 17.7696 80.9282 15.8052V4.87512C80.9282 2.91076 79.3358 1.31836 77.3715 1.31836Z" fill="#9BC9FF"/>
<path d="M77.3715 25.1924H71.4724C72.9924 25.1924 74.2246 26.4246 74.2246 27.9446V40.4838C74.2246 42.0038 72.9924 43.236 71.4724 43.236H77.3715C79.3358 43.236 80.9282 41.6436 80.9282 39.6792V28.7491C80.9282 26.7848 79.3358 25.1924 77.3715 25.1924Z" fill="#9BC9FF"/>
<path d="M77.3715 49.0659H71.4724C72.9924 49.0659 74.2246 50.2981 74.2246 51.8181V64.3573C74.2246 65.8773 72.9924 67.1095 71.4724 67.1095H77.3715C79.3358 67.1095 80.9282 65.5171 80.9282 63.5527V52.6227C80.9282 50.6585 79.3358 49.0659 77.3715 49.0659Z" fill="#9BC9FF"/>
<path d="M34.7759 87.6723V81.2445C34.7759 80.6869 35.2278 80.2351 35.7852 80.2351H40.7767V77.0879C40.7767 76.5305 41.2286 76.0786 41.786 76.0786H48.2138C48.7712 76.0786 49.2232 76.5305 49.2232 77.0879V80.2351H54.0543C54.6117 80.2351 55.0637 80.6871 55.0637 81.2445V87.6723C55.0637 88.2298 54.6117 88.6816 54.0543 88.6816H35.7852C35.2278 88.6818 34.7759 88.2298 34.7759 87.6723Z" fill="#9BC9FF"/>
<path d="M70.1809 14.3862C67.9499 14.3862 66.1348 12.5711 66.1348 10.3401C66.1348 8.10906 67.9497 6.29395 70.1809 6.29395C72.4119 6.29395 74.227 8.10906 74.227 10.3401C74.227 12.5711 72.4121 14.3862 70.1809 14.3862Z" fill="white"/>
<path d="M70.1809 38.2568C67.9499 38.2568 66.1348 36.4417 66.1348 34.2107C66.1348 31.9797 67.9497 30.1646 70.1809 30.1646C72.4119 30.1646 74.227 31.9797 74.227 34.2107C74.227 36.4417 72.4121 38.2568 70.1809 38.2568Z" fill="white"/>
<path d="M70.1809 62.1338C67.9499 62.1338 66.1348 60.3187 66.1348 58.0876C66.1348 55.8566 67.9497 54.0415 70.1809 54.0415C72.4119 54.0415 74.227 55.8566 74.227 58.0876C74.227 60.3187 72.4121 62.1338 70.1809 62.1338Z" fill="white"/>
<path d="M14.8923 8.80615H48.819C49.5473 8.80615 50.1374 8.21588 50.1374 7.48779C50.1374 6.75971 49.5473 6.16943 48.819 6.16943H14.8923C14.1641 6.16943 13.574 6.75971 13.574 7.48779C13.574 8.21588 14.1641 8.80615 14.8923 8.80615Z" fill="#308BEB"/>
<path d="M14.8923 14.5112H48.819C49.5473 14.5112 50.1374 13.921 50.1374 13.1929C50.1374 12.4648 49.5473 11.8745 48.819 11.8745H14.8923C14.1641 11.8745 13.574 12.4648 13.574 13.1929C13.574 13.921 14.1641 14.5112 14.8923 14.5112Z" fill="#308BEB"/>
<path d="M14.8923 32.7578H48.819C49.5473 32.7578 50.1374 32.1675 50.1374 31.4395C50.1374 30.7114 49.5473 30.1211 48.819 30.1211H14.8923C14.1641 30.1211 13.574 30.7114 13.574 31.4395C13.574 32.1675 14.1641 32.7578 14.8923 32.7578Z" fill="#308BEB"/>
<path d="M14.8923 38.4629H48.819C49.5473 38.4629 50.1374 37.8726 50.1374 37.1445C50.1374 36.4164 49.5473 35.8262 48.819 35.8262H14.8923C14.1641 35.8262 13.574 36.4164 13.574 37.1445C13.574 37.8726 14.1641 38.4629 14.8923 38.4629Z" fill="#308BEB"/>
<path d="M48.819 54.0728H14.8923C14.1641 54.0728 13.574 54.663 13.574 55.3911C13.574 56.1192 14.1641 56.7095 14.8923 56.7095H48.819C49.5473 56.7095 50.1374 56.1192 50.1374 55.3911C50.1374 54.663 49.5471 54.0728 48.819 54.0728Z" fill="#308BEB"/>
<path d="M48.819 59.7778H14.8923C14.1641 59.7778 13.574 60.3681 13.574 61.0962C13.574 61.8243 14.1641 62.4146 14.8923 62.4146H48.819C49.5473 62.4146 50.1374 61.8243 50.1374 61.0962C50.1374 60.3681 49.5471 59.7778 48.819 59.7778Z" fill="#308BEB"/>
<path d="M77.3715 20.6805C80.0597 20.6805 82.2466 18.4936 82.2466 15.8054V4.87529C82.2468 2.18689 80.0597 0 77.3715 0H12.6285C9.94024 0 7.75317 2.18689 7.75317 4.87512V7.25766C7.75317 7.98574 8.34327 8.57602 9.07153 8.57602C9.79979 8.57602 10.3899 7.98574 10.3899 7.25766V4.87512C10.3899 3.64096 11.3941 2.63672 12.6285 2.63672H77.3715C78.6057 2.63672 79.6099 3.64096 79.6099 4.87512V15.8052C79.6099 17.0395 78.6057 18.0436 77.3715 18.0436H12.6285C11.3943 18.0436 10.3901 17.0395 10.3901 15.8052V13.4228C10.3901 12.6947 9.79997 12.1045 9.07171 12.1045C8.34345 12.1045 7.75335 12.6947 7.75335 13.4228V15.8054C7.75335 18.4936 9.94024 20.6805 12.6285 20.6805H13.574V23.8737H12.6285C9.94024 23.8737 7.75335 26.0606 7.75335 28.7488V39.6789C7.75335 42.3671 9.94024 44.554 12.6285 44.554H13.574V47.7473H12.6285C9.94024 47.7473 7.75335 49.9342 7.75335 52.6224V63.5525C7.75335 66.2407 9.94024 68.4276 12.6285 68.4276H40.9018V74.9355C40.0558 75.2845 39.4585 76.1173 39.4585 77.0876V78.9165H35.7854C34.8149 78.9165 33.9822 79.5138 33.6333 80.3598H9.95501C8.74106 80.3598 7.75353 81.3475 7.75353 82.5615V86.3546C7.75353 87.5688 8.74106 88.5563 9.95501 88.5563H33.6331C33.982 89.4023 34.8149 89.9996 35.7852 89.9996H54.0545C55.025 89.9996 55.8576 89.4023 56.2066 88.5563H80.045C81.2589 88.5563 82.2466 87.5686 82.2466 86.3546V82.5615C82.2466 81.3475 81.2589 80.3598 80.045 80.3598H56.2066C55.8576 79.5138 55.0248 78.9165 54.0545 78.9165H50.5417V77.0876C50.5417 76.1171 49.9444 75.2845 49.0983 74.9355V68.4276H77.3717C80.0599 68.4276 82.2468 66.2407 82.2468 63.5525V61.1701C82.2468 60.442 81.6567 59.8518 80.9284 59.8518C80.2002 59.8518 79.6101 60.442 79.6101 61.1701V63.5527C79.6101 64.7868 78.6058 65.7911 77.3717 65.7911H12.6285C11.3943 65.7911 10.3901 64.7868 10.3901 63.5527V52.6226C10.3901 51.3882 11.3943 50.3842 12.6285 50.3842H77.3715C78.6057 50.3842 79.6099 51.3882 79.6099 52.6226V55.0051C79.6099 55.7332 80.2 56.3235 80.9283 56.3235C81.6565 56.3235 82.2466 55.7332 82.2466 55.0051V52.6226C82.2466 49.9344 80.0597 47.7475 77.3715 47.7475H76.8937V44.5542H77.3715C80.0597 44.5542 82.2466 42.3673 82.2466 39.6791V28.749C82.2466 26.0608 80.0597 23.8739 77.3715 23.8739H76.8937V20.6807H77.3715V20.6805ZM10.3901 82.9969H33.4575V85.9199H10.3901V82.9969ZM79.6101 85.9199H56.3822V82.9969H79.6101V85.9199ZM53.7455 81.5534V87.3633H36.0942V81.5534H40.7768C41.5051 81.5534 42.0952 80.9631 42.0952 80.235V77.3968H47.9049V80.235C47.9049 80.9631 48.495 81.5534 49.2233 81.5534H53.7455ZM46.4614 74.7601H43.5384V68.4278H46.4614V74.7601ZM74.257 47.7473H16.2107V44.554H74.2572V47.7473H74.257ZM79.6101 28.7488V39.6789C79.6101 40.9133 78.6058 41.9173 77.3717 41.9173H12.6285C11.3943 41.9173 10.3901 40.9133 10.3901 39.6789V28.7488C10.3901 27.5147 11.3943 26.5105 12.6285 26.5105H77.3715C78.6058 26.5103 79.6101 27.5145 79.6101 28.7488ZM74.257 23.8736H16.2107V20.6803H74.2572V23.8736H74.257Z" fill="#308BEB"/>
<path d="M75.5454 10.3401C75.5454 7.38203 73.1389 4.97559 70.1809 4.97559C67.2229 4.97559 64.8164 7.38203 64.8164 10.3401C64.8164 13.2981 67.2229 15.7046 70.1809 15.7046C73.1389 15.7046 75.5454 13.2981 75.5454 10.3401ZM67.4531 10.3401C67.4531 8.83592 68.6767 7.6123 70.1809 7.6123C71.6851 7.6123 72.9087 8.83592 72.9087 10.3401C72.9087 11.8442 71.6851 13.0679 70.1809 13.0679C68.6767 13.0679 67.4531 11.8442 67.4531 10.3401Z" fill="#308BEB"/>
<path d="M70.1809 39.5752C73.1388 39.5752 75.5454 37.1687 75.5454 34.2107C75.5454 31.2526 73.1389 28.8462 70.1809 28.8462C67.2229 28.8462 64.8164 31.2526 64.8164 34.2107C64.8164 37.1687 67.223 39.5752 70.1809 39.5752ZM70.1809 31.4831C71.6851 31.4831 72.9087 32.7067 72.9087 34.2109C72.9087 35.715 71.6851 36.9386 70.1809 36.9386C68.6767 36.9386 67.4531 35.715 67.4531 34.2109C67.4531 32.7067 68.6767 31.4831 70.1809 31.4831Z" fill="#308BEB"/>
<path d="M64.8164 58.0876C64.8164 61.0457 67.2229 63.4521 70.1809 63.4521C73.1389 63.4521 75.5454 61.0457 75.5454 58.0876C75.5454 55.1296 73.1389 52.7231 70.1809 52.7231C67.2229 52.7231 64.8164 55.1296 64.8164 58.0876ZM72.9087 58.0876C72.9087 59.5918 71.6851 60.8154 70.1809 60.8154C68.6767 60.8154 67.4531 59.5918 67.4531 58.0876C67.4531 56.5835 68.6767 55.3599 70.1809 55.3599C71.6851 55.3599 72.9087 56.5835 72.9087 58.0876Z" fill="#308BEB"/>
</g>
<defs>
<clipPath id="clip0">
<rect width="90" height="90" fill="white"/>
</clipPath>
</defs>
</svg>
